<svg width="358" height="168" viewBox="0 0 358 168" fill="none" xmlns="http://www.w3.org/2000/svg">
<g clip-path="url(#clip0_232_324)">
<path d="M75.1046 129.275C81.6082 128.002 84.5583 132.356 92.9392 136.845C101.32 141.334 118.216 154.198 121.77 148.771C125.323 143.344 117.479 137.18 103.466 119.962C96.4927 111.386 93.0733 105.892 96.4927 102.341C98.8394 99.326 102.795 97.383 107.824 93.0281C114.931 86.7972 132.9 75.4073 129.078 70.1814C125.256 64.9555 116.741 70.1144 95.7552 77.2163C90.2573 79.0923 86.0333 79.7623 82.815 79.6283C77.3842 78.6233 72.4897 75.1393 69.7408 66.0945C59.4825 32.997 53.9176 36.8159 53.9176 36.8159C53.9176 36.8159 47.2799 35.8109 52.4425 70.0474C53.8505 79.3603 50.9675 84.6532 46.5424 87.9361C43.7264 89.4771 39.6365 90.6831 33.8704 91.4201C11.9459 94.1671 1.95579 93.2291 0.815984 99.594C-0.323823 105.959 20.7291 108.371 29.9146 110.85C36.3512 112.592 40.7763 112.592 44.1957 114.267C48.822 115.942 48.1515 122.374 45.6037 133.16C40.5081 154.734 36.15 163.712 41.7149 167.062C47.2799 170.345 56.8677 151.451 62.4326 143.746C67.9305 136.175 68.668 130.95 75.1046 129.275Z" fill="#165CA9"/>
<path d="M75.4308 129.275C81.9344 128.002 84.8845 132.356 93.2654 136.845C101.646 141.334 118.542 154.198 122.096 148.771C125.649 143.344 117.805 137.18 103.792 119.962C96.8189 111.386 93.3995 105.892 96.8189 102.341C99.1656 99.326 103.121 97.383 108.15 93.0281C115.257 86.7972 133.226 75.4073 129.404 70.1814C125.582 64.9555 117.067 70.1144 96.0814 77.2163C90.5835 79.0923 86.3595 79.7623 83.1412 79.6283C77.7104 78.6233 72.8159 75.1393 70.067 66.0945C59.8087 32.997 54.2437 36.8159 54.2437 36.8159C54.2437 36.8159 47.6061 35.8109 52.7687 70.0474C54.1767 79.3603 51.2937 84.6532 46.8685 87.9361C44.0525 89.4771 39.9626 90.6831 34.1966 91.4201C12.272 94.1671 2.28196 93.2291 1.14216 99.594C0.00234866 105.959 21.0553 108.371 30.2408 110.85C36.6773 112.592 41.1024 112.592 44.5219 114.267C49.1481 115.942 48.4777 122.374 45.9299 133.16C40.8343 154.734 36.4762 163.712 42.0411 167.062C47.6061 170.345 57.1938 151.451 62.7588 143.746C68.2567 136.175 68.9942 130.95 75.4308 129.275Z" fill="url(#paint0_radial_232_324)"/>
<mask id="mask0_232_324" style="mask-type:alpha" maskUnits="userSpaceOnUse" x="1" y="36" width="129" height="132">
<path d="M75.4308 129.275C81.9344 128.002 84.8845 132.356 93.2654 136.845C101.646 141.334 118.542 154.198 122.096 148.771C125.649 143.344 117.805 137.18 103.792 119.962C96.8189 111.386 93.3995 105.892 96.8189 102.341C99.1656 99.326 103.121 97.383 108.15 93.0281C115.257 86.7972 133.226 75.4073 129.404 70.1814C125.582 64.9555 117.067 70.1144 96.0814 77.2163C90.5835 79.0923 86.3595 79.7623 83.1412 79.6283C77.7104 78.6233 72.8159 75.1393 70.067 66.0945C59.8087 32.997 54.2437 36.8159 54.2437 36.8159C54.2437 36.8159 47.6061 35.8109 52.7687 70.0474C54.1767 79.3603 51.2937 84.6532 46.8685 87.9361C44.0525 89.4771 39.9626 90.6831 34.1966 91.4201C12.272 94.1671 2.28196 93.2291 1.14216 99.594C0.00234866 105.959 21.0553 108.371 30.2408 110.85C36.6773 112.592 41.1024 112.592 44.5219 114.267C49.1481 115.942 48.4777 122.374 45.9299 133.16C40.8343 154.734 36.4762 163.712 42.0411 167.062C47.6061 170.345 57.1938 151.451 62.7588 143.746C68.2567 136.175 68.9942 130.95 75.4308 129.275Z" fill="url(#paint1_radial_232_324)"/>
</mask>
<g mask="url(#mask0_232_324)">
<path d="M71.9469 116.21C75.6345 115.474 77.3107 117.952 82.0711 120.498C86.8314 123.044 125.518 156.41 127.529 153.328C129.541 150.246 96.0169 120.632 88.0383 110.918C84.0825 106.027 82.1381 102.945 84.0825 100.935C85.4234 99.2597 87.7031 98.1208 90.5191 95.6418C94.5419 92.0908 154.751 62.9463 152.605 59.9983C150.46 57.0504 95.5476 82.644 83.6802 86.6639C80.529 87.7359 78.1823 88.1379 76.372 88.0039C73.2878 87.4009 70.5389 85.458 68.9298 80.366C63.0966 61.6063 44.1222 -4.65571 51.4304 35.4767C51.4304 35.4767 56.1907 63.2143 59.1408 82.644C59.9454 87.9369 58.2692 90.8849 55.7885 92.7608C54.1793 93.6318 51.8997 94.3018 48.6144 94.7038C36.1435 96.2448 -9.44873 95.6418 -10.0522 99.2597C-10.7226 102.878 41.2392 104.285 46.4018 105.759C50.0224 106.764 52.5702 106.764 54.5146 107.702C57.1294 108.64 56.7271 112.325 55.3191 118.421C52.4361 130.682 34.6685 178.252 37.8197 180.128C40.971 182.004 61.6886 128.806 64.8399 124.451C67.857 120.163 68.3263 117.215 71.9469 116.21Z" fill="#08377C"/>
</g>
<path d="M75.1047 129.208C76.2446 129.007 77.3844 128.94 78.5242 129.074C79.664 129.208 80.7367 129.543 81.8095 130.012C83.888 130.95 85.6983 132.29 87.6426 133.496C89.52 134.769 91.4643 135.908 93.4758 136.98C95.4872 138.052 97.3645 139.258 99.3089 140.464C103.198 142.809 107.019 145.221 111.042 147.231C113.054 148.236 115.132 149.174 117.278 149.643C118.35 149.844 119.49 149.978 120.429 149.576C120.898 149.375 121.233 149.04 121.569 148.638C121.837 148.169 122.038 147.7 122.172 147.164C122.44 146.159 122.239 145.087 121.904 144.015C121.502 143.01 120.965 142.005 120.362 141.067C119.155 139.191 117.68 137.449 116.272 135.707L107.422 125.456C104.472 121.972 101.589 118.555 98.9066 114.87C97.5657 112.994 96.2917 111.118 95.4201 108.907C95.0178 107.835 94.6156 106.629 94.6826 105.356C94.6826 104.083 95.286 102.81 96.1577 101.939L96.0906 102.006C97.4316 100.331 99.0407 99.1255 100.65 97.9195C102.259 96.7135 103.868 95.5746 105.41 94.3686C106.215 93.7656 106.952 93.0956 107.69 92.4926C108.427 91.8226 109.232 91.2196 110.036 90.5496C111.579 89.2767 113.188 88.0707 114.797 86.8647C117.948 84.4527 121.166 81.9738 124.049 79.2938C125.457 77.9538 126.865 76.5469 128.005 74.9389C128.542 74.1349 129.011 73.2639 129.145 72.3929C129.212 71.9239 129.212 71.5219 129.078 71.1199C129.011 70.9189 128.877 70.7179 128.81 70.5169C128.676 70.3159 128.542 70.115 128.408 69.981C127.804 69.311 126.999 68.842 126.061 68.641C125.122 68.44 124.184 68.44 123.178 68.574C121.233 68.775 119.289 69.378 117.412 69.981C113.59 71.1869 109.835 72.5939 106.081 73.9339C102.326 75.2739 98.5714 76.6138 94.7497 77.8868C92.8053 78.4898 90.8609 79.0258 88.9165 79.4278C86.9722 79.8298 84.8937 80.0308 82.8823 79.9638C80.6697 79.4948 78.4571 78.6908 76.5798 77.2838C74.7025 75.9439 73.2274 74.0679 72.0876 72.1249C70.9478 70.1149 70.1432 67.971 69.4057 65.827C68.6682 63.683 68.0648 61.5391 67.2602 59.3951L66.1204 56.1792C65.7181 55.1072 65.3158 54.1022 64.9135 53.0302L64.3101 51.4222L63.6396 49.8813C63.1703 48.8763 62.768 47.8043 62.2316 46.7993C61.7623 45.7943 61.2259 44.7893 60.6895 43.7843C60.4213 43.3153 60.1532 42.7793 59.8179 42.3104L58.8793 40.9034C58.544 40.4344 58.2088 40.0324 57.8735 39.5634C57.5383 39.1614 57.136 38.7594 56.7337 38.3574L56.1303 37.8214C55.9292 37.6874 55.661 37.5534 55.4598 37.4194C55.3257 37.3524 55.2587 37.3524 55.1246 37.2854C54.9905 37.2184 54.9235 37.2184 54.7894 37.2184C54.6553 37.2184 54.5882 37.1514 54.4541 37.2184C54.3871 37.2184 54.253 37.2854 54.1859 37.2854H53.9848L53.9177 37.3524C53.9177 37.3524 53.7836 37.3524 53.6496 37.4194C53.5825 37.4194 53.4484 37.4864 53.3814 37.5534C53.2473 37.6204 53.1802 37.6874 53.1132 37.7544C53.0461 37.8214 52.912 37.9554 52.845 38.0224C52.7109 38.2234 52.5768 38.4244 52.4427 38.6924L52.1075 39.4294C51.9063 39.9654 51.7722 40.5014 51.6381 41.0374C51.504 41.5734 51.437 42.1094 51.3029 42.6453L51.1017 44.3203C51.0347 44.8563 51.0347 45.4593 50.9677 45.9953C50.9006 47.1343 50.9006 48.2733 50.9006 49.3452C50.9006 50.4842 50.9677 51.6232 51.0347 52.6952L51.1017 54.3702L51.2358 56.0451C51.3699 57.1841 51.437 58.3231 51.5711 59.3951L51.9734 62.745C52.2416 65.023 52.5768 67.234 52.912 69.4449C53.2473 71.7229 53.4484 74.0009 53.3143 76.3459C53.1132 78.6238 52.6438 80.9688 51.504 83.1127C50.4313 85.2567 48.8221 86.9987 46.9448 88.4057H46.8778C45.0675 89.4107 43.1231 90.0806 41.1787 90.6166C39.2343 91.1526 37.2229 91.4876 35.2115 91.8226C31.1887 92.3586 27.2328 92.7606 23.277 93.2296C19.3212 93.6316 15.2984 93.9666 11.3426 94.5696C9.39822 94.8376 7.45384 95.1726 5.64356 95.7756C3.83328 96.3786 2.22415 97.3835 1.75481 99.1255C1.68777 99.3265 1.62071 99.5275 1.62071 99.7285C1.62071 99.9295 1.55366 100.13 1.62071 100.264C1.62071 100.599 1.82186 101.001 2.023 101.336C2.49233 102.006 3.29691 102.609 4.10148 103.078C5.77766 104.016 7.58794 104.686 9.46527 105.289C13.2199 106.495 17.1757 107.299 21.0645 108.103C23.0089 108.505 24.9532 108.907 26.9647 109.376C27.9704 109.577 28.909 109.845 29.9148 110.113C30.8534 110.381 31.8591 110.649 32.7978 110.85C34.7422 111.319 36.6866 111.654 38.6309 111.989C40.5753 112.391 42.6538 112.793 44.5311 113.731H44.4641C45.6709 114.133 46.7437 115.071 47.3471 116.21C47.9505 117.349 48.1517 118.555 48.2187 119.761C48.3528 122.106 48.0176 124.384 47.6153 126.662C46.8107 131.151 45.6709 135.506 44.5311 139.928L41.0446 153.06C40.5083 155.271 39.9719 157.415 39.7037 159.626C39.5696 160.698 39.5025 161.837 39.5696 162.909C39.7037 163.981 39.9719 165.053 40.6423 165.857C40.9776 166.258 41.3799 166.593 41.8492 166.861C42.3185 167.129 42.7879 167.263 43.2572 167.196C44.2629 167.129 45.2686 166.527 46.1402 165.924C47.8835 164.584 49.3585 162.842 50.6995 161.033C53.4484 157.482 55.8621 153.596 58.2758 149.844C59.4827 147.968 60.6895 146.025 62.0305 144.149C63.3714 142.34 64.5783 140.464 65.7181 138.521C66.925 136.578 67.9977 134.568 69.4057 132.826C70.1432 131.955 70.9478 131.151 71.9535 130.548C72.9592 129.945 74.032 129.476 75.1047 129.208ZM75.1718 129.342C74.099 129.677 73.0263 130.079 72.0876 130.682C71.1489 131.285 70.3444 132.089 69.6068 132.96C68.1989 134.702 67.1261 136.712 65.9192 138.655C64.7794 140.598 63.5726 142.541 62.2316 144.35C60.9577 146.226 59.7509 148.102 58.544 150.045C56.1303 153.864 53.7836 157.75 51.1017 161.368C49.7608 163.177 48.2858 164.986 46.4755 166.393C45.5368 167.062 44.5311 167.732 43.2572 167.866C42.6538 167.933 41.9833 167.732 41.4469 167.397C40.9105 167.062 40.4412 166.727 40.0389 166.258C39.2343 165.321 38.8321 164.115 38.698 162.976C38.5639 161.837 38.6309 160.631 38.765 159.492C39.0332 157.214 39.5025 155.003 40.0389 152.792C41.1117 148.37 42.2515 144.015 43.3913 139.66C44.464 135.305 45.6039 130.883 46.3414 126.461C46.6766 124.25 47.0119 122.039 46.8107 119.895C46.7437 118.823 46.5425 117.751 46.0732 116.88C45.6039 116.009 44.8663 115.406 43.9277 115.071H43.8606H43.7936C42.1174 114.267 40.173 113.865 38.2286 113.463C36.2843 113.128 34.2728 112.793 32.3285 112.324C31.3227 112.123 30.3841 111.855 29.3784 111.587C28.4397 111.319 27.434 111.118 26.4953 110.917C24.551 110.448 22.6066 110.113 20.6622 109.644C16.7734 108.84 12.8176 107.969 8.92889 106.763C6.98451 106.16 5.04014 105.49 3.22986 104.418C2.35824 103.882 1.41958 103.279 0.749102 102.274C0.413864 101.805 0.145674 101.202 0.078627 100.599C0.0115795 100.264 0.078627 99.9965 0.078627 99.6615C0.145674 99.3935 0.212714 99.1255 0.279761 98.8575C0.413856 98.3215 0.68205 97.7855 1.01729 97.3165C1.35252 96.8475 1.75481 96.4456 2.22414 96.1106C3.09576 95.4406 4.10148 94.9716 5.10719 94.6366C7.11861 93.9666 9.13003 93.6316 11.0744 93.3636C15.0973 92.8276 19.0531 92.4926 23.0089 92.0906C26.9647 91.6886 30.9875 91.2866 34.9433 90.7506C36.8877 90.4826 38.8321 90.1476 40.7764 89.6117C42.6538 89.1427 44.5311 88.4727 46.2073 87.5347L46.1402 87.6017C47.8835 86.2617 49.4256 84.6537 50.4313 82.7108C51.504 80.7678 51.9734 78.6238 52.1745 76.4128C52.3757 74.2019 52.1745 71.9909 51.8393 69.7799C51.5711 67.502 51.1688 65.291 50.9677 63.013L50.6324 59.5961C50.4983 58.4571 50.4313 57.3181 50.3642 56.1792L50.2301 54.5042L50.1631 52.8292C50.096 51.6902 50.029 50.5512 50.096 49.4123C50.096 48.2733 50.096 47.1343 50.1631 45.9953C50.2301 45.3923 50.2301 44.8563 50.2972 44.2533L50.4983 42.5114C50.5654 41.9754 50.6995 41.3724 50.8336 40.8364C50.9677 40.3004 51.1688 39.6974 51.3699 39.1614L51.7722 38.3574C51.9063 38.0894 52.1075 37.8214 52.2416 37.5534C52.6438 37.0844 53.1132 36.5484 53.9848 36.5484L53.7166 36.6154C54.5212 36.2134 55.1246 36.5484 55.728 36.7494C55.9962 36.8834 56.2644 37.0844 56.5326 37.2184L57.2031 37.8214C57.6054 38.2234 58.0076 38.6924 58.4099 39.0944C58.7452 39.5634 59.0804 40.0324 59.4156 40.5014L60.3543 41.9754C60.6895 42.4444 60.8907 42.9804 61.2259 43.4493C61.7623 44.4543 62.2987 45.4593 62.768 46.5313C64.7124 50.6852 66.2545 54.9062 67.7295 59.1941C68.467 61.3381 69.1375 63.482 69.8751 65.693C70.5455 67.837 71.3501 69.9809 72.4899 71.9239C73.6297 73.8669 75.0377 75.6759 76.848 76.9488C78.6583 78.2888 80.7367 79.1598 82.9493 79.5618C84.8937 79.6288 86.9051 79.4278 88.8495 79.0258C90.7939 78.6238 92.7382 78.0878 94.6156 77.4848C98.4373 76.2118 102.192 74.8719 105.947 73.4649C109.701 72.0579 113.456 70.6509 117.211 69.3779C119.155 68.775 121.032 68.172 123.111 67.904C124.116 67.77 125.189 67.703 126.195 67.971C126.731 68.038 127.201 68.239 127.737 68.507C128.206 68.775 128.676 69.11 129.011 69.512C129.212 69.7129 129.346 69.9139 129.547 70.1149C129.681 70.3829 129.883 70.5839 129.95 70.8519C130.151 71.3879 130.151 71.9909 130.084 72.5269C129.883 73.5989 129.413 74.5369 128.81 75.4079C127.67 77.1498 126.262 78.5568 124.787 79.9638C121.837 82.7108 118.686 85.1897 115.534 87.6687C113.925 88.8747 112.383 90.1476 110.841 91.3536C110.036 91.9566 109.299 92.6266 108.561 93.2296C107.824 93.8996 107.019 94.5696 106.215 95.1726C104.673 96.4455 102.997 97.5845 101.387 98.7905C99.7782 99.9965 98.2361 101.202 97.0293 102.676C96.2918 103.413 95.8895 104.351 95.8895 105.356C95.8224 106.361 96.1577 107.433 96.5599 108.371C97.3645 110.381 98.6384 112.257 99.9123 114.066C102.527 117.684 105.477 121.168 108.36 124.652C111.243 128.136 114.193 131.553 117.076 135.037C118.484 136.779 119.892 138.588 121.166 140.531C121.77 141.536 122.373 142.541 122.708 143.613C123.111 144.685 123.312 145.958 122.977 147.164C122.843 147.767 122.574 148.303 122.239 148.772C121.904 149.308 121.368 149.71 120.831 149.978C119.624 150.447 118.417 150.246 117.278 150.045C114.998 149.509 112.92 148.571 110.908 147.499C106.885 145.422 103.064 142.943 99.2418 140.531C97.2975 139.325 95.4201 138.119 93.4087 137.047C91.3973 135.975 89.4529 134.769 87.5756 133.563C85.6983 132.357 83.8209 131.017 81.8095 130.012C80.8038 129.543 79.731 129.208 78.5912 129.074C77.3844 129.074 76.2446 129.141 75.1718 129.342Z" fill="#08377C"/>
<path d="M61.939 116.814C63.4943 116.814 64.755 115.554 64.755 114C64.755 112.446 63.4943 111.186 61.939 111.186C60.3838 111.186 59.123 112.446 59.123 114C59.123 115.554 60.3838 116.814 61.939 116.814Z" fill="#C3DDF4"/>
<path d="M59.932 122.91C61.0799 122.91 62.0105 121.98 62.0105 120.833C62.0105 119.686 61.0799 118.756 59.932 118.756C58.7841 118.756 57.8535 119.686 57.8535 120.833C57.8535 121.98 58.7841 122.91 59.932 122.91Z" fill="#C3DDF4"/>
<path d="M57.1932 127.468C57.8597 127.468 58.4 126.928 58.4 126.262C58.4 125.596 57.8597 125.056 57.1932 125.056C56.5267 125.056 55.9863 125.596 55.9863 126.262C55.9863 126.928 56.5267 127.468 57.1932 127.468Z" fill="#C3DDF4"/>
<path d="M55.4469 133.966C56.6689 133.966 57.6595 132.976 57.6595 131.755C57.6595 130.534 56.6689 129.544 55.4469 129.544C54.225 129.544 53.2344 130.534 53.2344 131.755C53.2344 132.976 54.225 133.966 55.4469 133.966Z" fill="#C3DDF4"/>
<path d="M56.1671 139.728C57.1298 139.728 57.9103 138.948 57.9103 137.985C57.9103 137.023 57.1298 136.243 56.1671 136.243C55.2043 136.243 54.4238 137.023 54.4238 137.985C54.4238 138.948 55.2043 139.728 56.1671 139.728Z" fill="#C3DDF4"/>
<path d="M51.7692 143.615C52.9912 143.615 53.9818 142.625 53.9818 141.404C53.9818 140.182 52.9912 139.192 51.7692 139.192C50.5472 139.192 49.5566 140.182 49.5566 141.404C49.5566 142.625 50.5472 143.615 51.7692 143.615Z" fill="#C3DDF4"/>
<path d="M51.6221 149.309C52.5849 149.309 53.3654 148.529 53.3654 147.566C53.3654 146.604 52.5849 145.824 51.6221 145.824C50.6594 145.824 49.8789 146.604 49.8789 147.566C49.8789 148.529 50.6594 149.309 51.6221 149.309Z" fill="#C3DDF4"/>
<path d="M48.1456 154.198C48.9973 154.198 49.6877 153.508 49.6877 152.656C49.6877 151.805 48.9973 151.115 48.1456 151.115C47.2939 151.115 46.6035 151.805 46.6035 152.656C46.6035 153.508 47.2939 154.198 48.1456 154.198Z" fill="#C3DDF4"/>
<path d="M46.667 160.631C47.8519 160.631 48.8125 159.671 48.8125 158.487C48.8125 157.303 47.8519 156.343 46.667 156.343C45.4821 156.343 44.5215 157.303 44.5215 158.487C44.5215 159.671 45.4821 160.631 46.667 160.631Z" fill="#C3DDF4"/>
<path d="M44.3155 165.387C45.1672 165.387 45.8576 164.697 45.8576 163.846C45.8576 162.995 45.1672 162.305 44.3155 162.305C43.4639 162.305 42.7734 162.995 42.7734 163.846C42.7734 164.697 43.4639 165.387 44.3155 165.387Z" fill="#C3DDF4"/>
<path d="M58.1832 103.682C59.7384 103.682 60.9992 102.422 60.9992 100.868C60.9992 99.3137 59.7384 98.0537 58.1832 98.0537C56.6279 98.0537 55.3672 99.3137 55.3672 100.868C55.3672 102.422 56.6279 103.682 58.1832 103.682Z" fill="#C3DDF4"/>
<path d="M51.0043 102.476C52.1522 102.476 53.0827 101.546 53.0827 100.399C53.0827 99.2513 52.1522 98.3213 51.0043 98.3213C49.8563 98.3213 48.9258 99.2513 48.9258 100.399C48.9258 101.546 49.8563 102.476 51.0043 102.476Z" fill="#C3DDF4"/>
<path d="M44.9862 102.341C45.6527 102.341 46.193 101.801 46.193 101.135C46.193 100.469 45.6527 99.9287 44.9862 99.9287C44.3196 99.9287 43.7793 100.469 43.7793 101.135C43.7793 101.801 44.3196 102.341 44.9862 102.341Z" fill="#C3DDF4"/>
<path d="M39.2106 103.213C40.4326 103.213 41.4232 102.223 41.4232 101.001C41.4232 99.78 40.4326 98.79 39.2106 98.79C37.9886 98.79 36.998 99.78 36.998 101.001C36.998 102.223 37.9886 103.213 39.2106 103.213Z" fill="#C3DDF4"/>
<path d="M33.5772 99.8633C34.54 99.8633 35.3205 99.0833 35.3205 98.1211C35.3205 97.1589 34.54 96.3789 33.5772 96.3789C32.6145 96.3789 31.834 97.1589 31.834 98.1211C31.834 99.0833 32.6145 99.8633 33.5772 99.8633Z" fill="#C3DDF4"/>
<path d="M28.9489 103.347C30.1709 103.347 31.1615 102.357 31.1615 101.136C31.1615 99.9148 30.1709 98.9248 28.9489 98.9248C27.7269 98.9248 26.7363 99.9148 26.7363 101.136C26.7363 102.357 27.7269 103.347 28.9489 103.347Z" fill="#C3DDF4"/>
<path d="M22.9796 100.935C23.9423 100.935 24.7228 100.155 24.7228 99.1924C24.7228 98.2302 23.9423 97.4502 22.9796 97.4502C22.0168 97.4502 21.2363 98.2302 21.2363 99.1924C21.2363 100.155 22.0168 100.935 22.9796 100.935Z" fill="#C3DDF4"/>
<path d="M17.0909 102.276C17.9426 102.276 18.633 101.586 18.633 100.735C18.633 99.8834 17.9426 99.1934 17.0909 99.1934C16.2392 99.1934 15.5488 99.8834 15.5488 100.735C15.5488 101.586 16.2392 102.276 17.0909 102.276Z" fill="#C3DDF4"/>
<path d="M11.124 102.276C12.309 102.276 13.2696 101.316 13.2696 100.132C13.2696 98.9473 12.309 97.9873 11.124 97.9873C9.93911 97.9873 8.97852 98.9473 8.97852 100.132C8.97852 101.316 9.93911 102.276 11.124 102.276Z" fill="#C3DDF4"/>
<path d="M5.28427 102.074C6.13595 102.074 6.82636 101.384 6.82636 100.532C6.82636 99.6812 6.13595 98.9912 5.28427 98.9912C4.4326 98.9912 3.74219 99.6812 3.74219 100.532C3.74219 101.384 4.4326 102.074 5.28427 102.074Z" fill="#C3DDF4"/>
<path d="M67.6363 95.5095C69.1915 95.5095 70.4523 94.2495 70.4523 92.6952C70.4523 91.1409 69.1915 89.8809 67.6363 89.8809C66.0811 89.8809 64.8203 91.1409 64.8203 92.6952C64.8203 94.2495 66.0811 95.5095 67.6363 95.5095Z" fill="#C3DDF4"/>
<path d="M65.6468 87.8703C66.7947 87.8703 67.7253 86.9403 67.7253 85.793C67.7253 84.6458 66.7947 83.7158 65.6468 83.7158C64.4989 83.7158 63.5684 84.6458 63.5684 85.793C63.5684 86.9403 64.4989 87.8703 65.6468 87.8703Z" fill="#C3DDF4"/>
<path d="M65.0389 80.9709C65.7054 80.9709 66.2457 80.4309 66.2457 79.7647C66.2457 79.0986 65.7054 78.5586 65.0389 78.5586C64.3724 78.5586 63.832 79.0986 63.832 79.7647C63.832 80.4309 64.3724 80.9709 65.0389 80.9709Z" fill="#C3DDF4"/>
<path d="M63.5407 76.4147C64.7627 76.4147 65.7533 75.4247 65.7533 74.2034C65.7533 72.9822 64.7627 71.9922 63.5407 71.9922C62.3187 71.9922 61.3281 72.9822 61.3281 74.2034C61.3281 75.4247 62.3187 76.4147 63.5407 76.4147Z" fill="#C3DDF4"/>
<path d="M59.5323 71.0537C60.4951 71.0537 61.2755 70.2737 61.2755 69.3115C61.2755 68.3494 60.4951 67.5693 59.5323 67.5693C58.5695 67.5693 57.7891 68.3494 57.7891 69.3115C57.7891 70.2737 58.5695 71.0537 59.5323 71.0537Z" fill="#C3DDF4"/>
<path d="M61.4235 66.3639C62.6455 66.3639 63.6361 65.3739 63.6361 64.1527C63.6361 62.9314 62.6455 61.9414 61.4235 61.9414C60.2015 61.9414 59.2109 62.9314 59.2109 64.1527C59.2109 65.3739 60.2015 66.3639 61.4235 66.3639Z" fill="#C3DDF4"/>
<path d="M58.2042 60.5342C59.1669 60.5342 59.9474 59.7542 59.9474 58.792C59.9474 57.8298 59.1669 57.0498 58.2042 57.0498C57.2414 57.0498 56.4609 57.8298 56.4609 58.792C56.4609 59.7542 57.2414 60.5342 58.2042 60.5342Z" fill="#C3DDF4"/>
<path d="M58.3898 54.2367C59.2414 54.2367 59.9318 53.5466 59.9318 52.6955C59.9318 51.8443 59.2414 51.1543 58.3898 51.1543C57.5381 51.1543 56.8477 51.8443 56.8477 52.6955C56.8477 53.5466 57.5381 54.2367 58.3898 54.2367Z" fill="#C3DDF4"/>
<path d="M56.5049 49.1459C57.6898 49.1459 58.6504 48.1859 58.6504 47.0017C58.6504 45.8174 57.6898 44.8574 56.5049 44.8574C55.32 44.8574 54.3594 45.8174 54.3594 47.0017C54.3594 48.1859 55.32 49.1459 56.5049 49.1459Z" fill="#C3DDF4"/>
<path d="M55.5772 42.7132C56.4289 42.7132 57.1193 42.0232 57.1193 41.172C57.1193 40.3209 56.4289 39.6309 55.5772 39.6309C54.7256 39.6309 54.0352 40.3209 54.0352 41.172C54.0352 42.0232 54.7256 42.7132 55.5772 42.7132Z" fill="#C3DDF4"/>
<path d="M78.5914 100.332C80.1466 100.332 81.4074 99.0718 81.4074 97.5174C81.4074 95.9631 80.1466 94.7031 78.5914 94.7031C77.0362 94.7031 75.7754 95.9631 75.7754 97.5174C75.7754 99.0718 77.0362 100.332 78.5914 100.332Z" fill="#C3DDF4"/>
<path d="M85.1019 96.5138C86.2498 96.5138 87.1804 95.5839 87.1804 94.4366C87.1804 93.2894 86.2498 92.3594 85.1019 92.3594C83.954 92.3594 83.0234 93.2894 83.0234 94.4366C83.0234 95.5839 83.954 96.5138 85.1019 96.5138Z" fill="#C3DDF4"/>
<path d="M89.994 92.1564C90.6605 92.1564 91.2008 91.6164 91.2008 90.9503C91.2008 90.2841 90.6605 89.7441 89.994 89.7441C89.3274 89.7441 88.7871 90.2841 88.7871 90.9503C88.7871 91.6164 89.3274 92.1564 89.994 92.1564Z" fill="#C3DDF4"/>
<path d="M95.1559 90.483C96.3779 90.483 97.3685 89.493 97.3685 88.2718C97.3685 87.0506 96.3779 86.0605 95.1559 86.0605C93.934 86.0605 92.9434 87.0506 92.9434 88.2718C92.9434 89.493 93.934 90.483 95.1559 90.483Z" fill="#C3DDF4"/>
<path d="M101.456 89.8135C102.419 89.8135 103.199 89.0335 103.199 88.0713C103.199 87.1091 102.419 86.3291 101.456 86.3291C100.493 86.3291 99.7129 87.1091 99.7129 88.0713C99.7129 89.0335 100.493 89.8135 101.456 89.8135Z" fill="#C3DDF4"/>
<path d="M104.072 85.3922C105.294 85.3922 106.285 84.4022 106.285 83.181C106.285 81.9597 105.294 80.9697 104.072 80.9697C102.85 80.9697 101.859 81.9597 101.859 83.181C101.859 84.4022 102.85 85.3922 104.072 85.3922Z" fill="#C3DDF4"/>
<path d="M110.232 83.7842C111.194 83.7842 111.975 83.0042 111.975 82.042C111.975 81.0798 111.194 80.2998 110.232 80.2998C109.269 80.2998 108.488 81.0798 108.488 82.042C108.488 83.0042 109.269 83.7842 110.232 83.7842Z" fill="#C3DDF4"/>
<path d="M114.667 79.3607C115.519 79.3607 116.209 78.6707 116.209 77.8195C116.209 76.9683 115.519 76.2783 114.667 76.2783C113.815 76.2783 113.125 76.9683 113.125 77.8195C113.125 78.6707 113.815 79.3607 114.667 79.3607Z" fill="#C3DDF4"/>
<path d="M120.167 77.6186C121.352 77.6186 122.313 76.6586 122.313 75.4743C122.313 74.2901 121.352 73.3301 120.167 73.3301C118.982 73.3301 118.021 74.2901 118.021 75.4743C118.021 76.6586 118.982 77.6186 120.167 77.6186Z" fill="#C3DDF4"/>
<path d="M125.128 73.8001C125.98 73.8001 126.67 73.1101 126.67 72.259C126.67 71.4078 125.98 70.7178 125.128 70.7178C124.276 70.7178 123.586 71.4078 123.586 72.259C123.586 73.1101 124.276 73.8001 125.128 73.8001Z" fill="#C3DDF4"/>
<path d="M79.7848 113.798C81.34 113.798 82.6008 112.538 82.6008 110.983C82.6008 109.429 81.34 108.169 79.7848 108.169C78.2295 108.169 76.9688 109.429 76.9688 110.983C76.9688 112.538 78.2295 113.798 79.7848 113.798Z" fill="#C3DDF4"/>
<path d="M85.4125 117.55C86.5604 117.55 87.4909 116.62 87.4909 115.473C87.4909 114.326 86.5604 113.396 85.4125 113.396C84.2646 113.396 83.334 114.326 83.334 115.473C83.334 116.62 84.2646 117.55 85.4125 117.55Z" fill="#C3DDF4"/>
<path d="M89.365 121.233C90.0316 121.233 90.5719 120.693 90.5719 120.026C90.5719 119.36 90.0316 118.82 89.365 118.82C88.6985 118.82 88.1582 119.36 88.1582 120.026C88.1582 120.693 88.6985 121.233 89.365 121.233Z" fill="#C3DDF4"/>
<path d="M93.7379 125.991C94.9599 125.991 95.9505 125.001 95.9505 123.78C95.9505 122.558 94.9599 121.568 93.7379 121.568C92.516 121.568 91.5254 122.558 91.5254 123.78C91.5254 125.001 92.516 125.991 93.7379 125.991Z" fill="#C3DDF4"/>
<path d="M99.837 127.196C100.8 127.196 101.58 126.416 101.58 125.454C101.58 124.492 100.8 123.712 99.837 123.712C98.8742 123.712 98.0938 124.492 98.0938 125.454C98.0938 126.416 98.8742 127.196 99.837 127.196Z" fill="#C3DDF4"/>
<path d="M101.293 133.025C102.515 133.025 103.505 132.035 103.505 130.814C103.505 129.593 102.515 128.603 101.293 128.603C100.071 128.603 99.0801 129.593 99.0801 130.814C99.0801 132.035 100.071 133.025 101.293 133.025Z" fill="#C3DDF4"/>
<path d="M107.005 135.035C107.968 135.035 108.748 134.255 108.748 133.293C108.748 132.331 107.968 131.551 107.005 131.551C106.042 131.551 105.262 132.331 105.262 133.293C105.262 134.255 106.042 135.035 107.005 135.035Z" fill="#C3DDF4"/>
<path d="M110.36 139.995C111.212 139.995 111.903 139.305 111.903 138.454C111.903 137.603 111.212 136.913 110.36 136.913C109.509 136.913 108.818 137.603 108.818 138.454C108.818 139.305 109.509 139.995 110.36 139.995Z" fill="#C3DDF4"/>
<path d="M115.196 144.147C116.381 144.147 117.342 143.187 117.342 142.003C117.342 140.818 116.381 139.858 115.196 139.858C114.011 139.858 113.051 140.818 113.051 142.003C113.051 143.187 114.011 144.147 115.196 144.147Z" fill="#C3DDF4"/>
<path d="M119.214 147.766C120.066 147.766 120.756 147.076 120.756 146.225C120.756 145.374 120.066 144.684 119.214 144.684C118.362 144.684 117.672 145.374 117.672 146.225C117.672 147.076 118.362 147.766 119.214 147.766Z" fill="#C3DDF4"/>
<path d="M251.197 27.9668C253.477 28.9048 255.689 30.0438 257.902 31.1828C258.975 31.7857 260.048 32.3887 261.12 32.9917C262.193 33.5947 263.266 34.2647 264.339 34.9347C266.417 36.2747 268.496 37.6817 270.507 39.1556C272.518 40.6296 274.463 42.2376 276.34 43.8456C278.217 45.5205 280.028 47.2625 281.704 49.1385C282.575 50.0765 283.38 51.0815 284.185 52.0864C284.989 53.0914 285.727 54.1634 286.397 55.2354C287.738 57.4464 288.945 59.7913 289.75 62.3373C290.554 64.8832 290.956 67.6302 290.755 70.3772L288.006 68.3672C288.61 68.1662 289.146 67.9652 289.683 67.8312C290.219 67.6972 290.755 67.4962 291.359 67.3622C292.431 67.0942 293.571 66.8262 294.644 66.6252C295.784 66.4242 296.857 66.2232 297.996 66.0892C299.136 65.9552 300.209 65.8212 301.349 65.7542C302.489 65.6872 303.561 65.6202 304.701 65.6202C305.841 65.6202 306.914 65.6202 308.054 65.6202C309.193 65.6202 310.266 65.7542 311.406 65.8212C312.546 65.9552 313.618 66.0222 314.691 66.2232C315.764 66.3572 316.904 66.5582 317.977 66.7592C319.049 66.9602 320.122 67.2282 321.195 67.4962C322.268 67.7642 323.34 68.0992 324.413 68.3672C325.486 68.7022 326.492 69.0372 327.564 69.4392C328.57 69.8412 329.643 70.2432 330.649 70.6452C331.185 70.8462 331.654 71.0472 332.191 71.3152L333.666 72.0521C334.671 72.5211 335.61 73.0571 336.616 73.5931C337.554 74.1291 338.493 74.7321 339.432 75.2681C338.426 74.8661 337.42 74.4641 336.348 74.1291C335.342 73.7941 334.336 73.3921 333.263 73.0571C332.258 72.7221 331.185 72.3871 330.179 72.1191C329.173 71.7841 328.101 71.5832 327.028 71.3152C325.955 71.0472 324.95 70.8462 323.877 70.6452C322.804 70.4442 321.798 70.2432 320.726 70.1092C319.653 69.9082 318.58 69.8412 317.574 69.7072C316.502 69.5732 315.429 69.4392 314.423 69.4392C313.35 69.3722 312.277 69.3052 311.272 69.3052C310.199 69.3052 309.126 69.3052 308.121 69.3052C307.048 69.3052 305.975 69.3722 304.969 69.4392C303.897 69.5062 302.891 69.5732 301.818 69.7072C299.74 69.9082 297.661 70.3102 295.583 70.7122C294.577 70.9132 293.504 71.1812 292.498 71.4492C292.029 71.5832 291.493 71.7171 291.023 71.8511C290.554 71.9851 290.018 72.1861 289.615 72.3201L286.665 73.4591L286.867 70.3102C287.001 68.1662 286.732 65.9552 286.062 63.8113C285.391 61.6673 284.386 59.5903 283.179 57.5804C282.575 56.5754 281.905 55.6374 281.235 54.6324C280.564 53.6944 279.827 52.7564 279.089 51.8184C278.351 50.8805 277.547 50.0095 276.742 49.1385C275.938 48.2675 275.066 47.3965 274.262 46.5255C272.585 44.8506 270.775 43.1756 268.898 41.5676C267.088 39.9596 265.21 38.4186 263.266 36.8777C262.327 36.1407 261.321 35.3367 260.383 34.5997C259.377 33.8627 258.438 33.1257 257.433 32.3887C255.22 30.7138 253.209 29.3068 251.197 27.9668Z" fill="#08377C"/>
<path d="M291.682 21.7432C293.358 22.6812 294.967 23.8201 296.509 24.8921C297.314 25.4281 298.051 26.0311 298.856 26.6341C299.593 27.2371 300.398 27.8401 301.135 28.4431C302.61 29.649 304.085 30.922 305.493 32.262C306.164 32.932 306.901 33.602 307.572 34.339C308.242 35.009 308.913 35.746 309.583 36.4829C310.254 37.2199 310.857 37.9569 311.528 38.6939C312.131 39.4309 312.735 40.2349 313.338 41.0389L314.21 42.2449L315.014 43.4508C315.282 43.8528 315.551 44.2548 315.819 44.7238C316.087 45.1258 316.355 45.5948 316.556 45.9968C316.757 46.4658 317.026 46.8678 317.227 47.3368L317.897 48.6768C318.299 49.6147 318.702 50.5527 318.97 51.4907L319.238 52.2277L319.439 52.9647C319.573 53.4337 319.707 53.9697 319.775 54.4387C319.842 54.9747 319.976 55.4437 320.043 55.9797L320.177 57.5206L318.165 55.9797C318.635 55.8457 319.104 55.7787 319.506 55.7787C319.976 55.7117 320.378 55.6447 320.847 55.6447C321.719 55.5107 322.59 55.5107 323.462 55.4437C324.334 55.4437 325.205 55.3767 326.077 55.3767C326.949 55.4437 327.82 55.3767 328.692 55.5107C329.563 55.5777 330.435 55.5777 331.307 55.7117C332.178 55.8457 333.05 55.9127 333.922 56.0467L336.469 56.5156C337.341 56.7166 338.146 56.9176 339.017 57.1856C339.889 57.3866 340.693 57.6546 341.498 57.9226L342.705 58.3246C343.107 58.4586 343.509 58.5926 343.912 58.7936L346.325 59.7986C347.13 60.1336 347.867 60.5356 348.605 60.9376C349.342 61.3396 350.147 61.6746 350.885 62.2106C351.622 62.6796 352.36 63.1485 353.03 63.5505C353.768 64.0195 354.438 64.5555 355.109 65.0245L357.12 66.5655L354.84 65.4265C354.103 65.0245 353.365 64.6225 352.561 64.2875C351.756 63.9525 351.019 63.6175 350.281 63.2825C349.544 62.8806 348.739 62.6796 347.934 62.3446C347.13 62.0766 346.392 61.7416 345.588 61.4736L343.174 60.7366C342.37 60.4686 341.565 60.3346 340.76 60.1336C339.956 59.9326 339.151 59.7316 338.347 59.5976C337.542 59.4636 336.738 59.2626 335.933 59.1286L333.452 58.7936C332.648 58.7266 331.843 58.6596 330.971 58.5926C330.167 58.5256 329.362 58.5256 328.491 58.4586C327.686 58.3916 326.882 58.4586 326.01 58.4586C325.205 58.4586 324.401 58.5256 323.529 58.5256C322.725 58.5926 321.92 58.6596 321.115 58.7936C320.311 58.8606 319.506 58.9946 318.769 59.1286L316.959 59.4636L316.757 57.5876L316.623 56.3147C316.556 55.9127 316.489 55.4437 316.422 55.0417C316.355 54.5727 316.221 54.1707 316.087 53.7687L315.953 53.0987L315.752 52.4287C315.483 51.5577 315.148 50.7537 314.813 49.8827C314.411 49.0788 314.076 48.2078 313.606 47.4038C313.405 47.0018 313.204 46.5998 312.936 46.1978C312.735 45.7958 312.466 45.3938 312.265 44.9918L311.528 43.7858L310.79 42.6469C310.254 41.8429 309.717 41.1059 309.181 40.3689C308.645 39.6319 308.041 38.8949 307.505 38.1579C306.901 37.4209 306.298 36.6839 305.695 35.947C305.091 35.21 304.488 34.54 303.817 33.803C302.543 32.396 301.269 30.989 299.928 29.649C298.588 28.3091 297.247 26.9691 295.839 25.6291C294.565 24.2891 293.157 23.0161 291.682 21.7432Z" fill="#08377C"/>
<path d="M227.461 0.000976562C229.07 0.134975 230.679 0.40297 232.288 0.670966C233.898 1.00596 235.507 1.34095 237.049 1.80995C237.853 2.01094 238.591 2.27894 239.395 2.54694C240.2 2.81494 240.937 3.08293 241.742 3.35093C242.48 3.61892 243.284 3.95391 244.022 4.28891C244.759 4.6239 245.497 4.9589 246.234 5.3609C246.972 5.69589 247.709 6.16489 248.447 6.56688C249.184 6.96887 249.855 7.43787 250.525 7.90686C251.196 8.37585 251.866 8.91184 252.537 9.38083L253.542 10.1848L254.481 11.0558C254.816 11.3238 255.084 11.6588 255.353 11.9938C255.621 12.3288 255.956 12.5968 256.224 12.9318C256.761 13.6018 257.297 14.2718 257.766 14.9418C258.236 15.6787 258.705 16.3487 259.107 17.1527C259.51 17.8897 259.845 18.6937 260.18 19.4977L258.169 18.8947C258.839 18.4927 259.443 18.0907 260.046 17.7557C260.649 17.4207 261.32 17.0857 261.99 16.7507C262.661 16.4157 263.264 16.1477 263.935 15.8127C264.605 15.5447 265.276 15.2767 265.946 15.0087C267.287 14.4728 268.695 14.0708 270.036 13.6688C270.707 13.4678 271.444 13.3338 272.115 13.1998C272.852 13.0658 273.523 12.9318 274.26 12.7978C274.998 12.6638 275.668 12.5968 276.406 12.5298C277.143 12.4628 277.814 12.3958 278.551 12.3958C279.289 12.3958 279.959 12.3958 280.697 12.3958C281.434 12.4628 282.105 12.4628 282.842 12.5968C283.58 12.6638 284.25 12.7978 284.988 12.9318C285.658 13.0658 286.396 13.1998 287.066 13.4678L288.072 13.8028L289.078 14.1378C289.748 14.3388 290.351 14.6738 291.022 15.0087C290.351 14.8747 289.681 14.6068 288.943 14.5398L287.938 14.3388L286.932 14.2048C286.597 14.1378 286.262 14.1378 285.926 14.0708C285.591 14.0708 285.256 14.0038 284.921 14.0038C284.25 13.9368 283.513 13.9368 282.842 13.9368C282.172 13.9368 281.434 13.9368 280.764 14.0038C280.093 14.0708 279.423 14.0708 278.685 14.2048C278.015 14.2718 277.344 14.4058 276.674 14.4728C276.003 14.6068 275.333 14.7408 274.662 14.8748C273.992 15.0087 273.321 15.2097 272.651 15.4107C271.98 15.6117 271.31 15.8127 270.707 16.0137C269.433 16.4157 268.092 16.8847 266.885 17.4207C265.611 17.9567 264.404 18.5597 263.197 19.1627C262.594 19.4977 261.99 19.7657 261.387 20.1677C260.784 20.5027 260.18 20.8377 259.711 21.2397L258.37 22.1106L257.699 20.6367C257.364 19.9667 257.096 19.2297 256.761 18.5597C256.425 17.8897 256.023 17.2197 255.621 16.6167C255.152 16.0137 254.749 15.3437 254.213 14.8078C253.945 14.4728 253.744 14.2048 253.475 13.9368C253.207 13.6688 252.939 13.3338 252.671 13.0658L251.866 12.2618L250.995 11.4578C250.391 10.9218 249.788 10.4528 249.184 9.98382C248.581 9.51483 247.91 9.04584 247.24 8.64384C246.569 8.24185 245.899 7.77286 245.229 7.37087C244.558 6.96887 243.82 6.56688 243.15 6.16488C242.413 5.82989 241.742 5.4279 241.005 5.0929C239.597 4.42291 238.121 3.75292 236.579 3.14993C235.842 2.88193 235.104 2.54693 234.3 2.27894C233.562 2.01094 232.758 1.74295 232.02 1.47495C230.612 0.871961 229.07 0.402971 227.461 0.000976562Z" fill="#08377C"/>
<path d="M192.546 77.8857C192.546 81.7046 190.736 85.1886 187.049 88.2035C183.294 91.2185 179.338 92.7595 175.047 92.7595C173.505 92.7595 172.164 92.4915 170.957 91.8885C169.951 91.2855 169.415 90.4815 169.348 89.6105C169.348 87.3325 170.086 86.1936 171.561 86.1936C172.432 86.1936 172.902 86.5286 172.969 87.1985C172.969 87.4665 172.834 87.7345 172.566 87.9355C172.432 88.0695 172.432 88.1365 172.365 88.2705C172.365 88.4045 172.298 88.5385 172.231 88.7395C172.231 89.4095 172.633 90.0125 173.371 90.4815C174.175 91.0175 175.181 91.2185 176.455 91.2185C179.338 91.2185 182.087 89.9455 184.769 87.4665C187.451 84.8536 188.859 82.2406 188.859 79.5607C188.859 77.1487 187.652 75.1387 185.171 73.3967C182.892 71.7888 179.941 70.9178 176.254 70.9178C170.421 70.9178 164.051 72.7268 157.078 76.3447C149.636 80.1637 145.881 84.2506 145.881 88.6055C145.881 91.7545 147.826 94.0994 151.782 95.6404L172.499 103.479C177.595 105.355 180.143 108.236 180.143 111.988C180.143 117.817 177.193 122.574 171.225 126.192C168.208 127.934 164.722 129.274 160.9 130.145C157.011 131.016 152.586 131.485 147.625 131.552C139.512 131.552 132.606 130.145 126.773 127.398C121.074 124.517 118.258 121.1 118.258 117.147C118.258 113.931 120.403 111.653 124.761 110.246C126.639 109.71 127.644 109.777 127.846 110.313C127.712 110.447 127.51 110.581 127.242 110.782C126.974 110.916 126.706 111.117 126.371 111.385C126.035 111.653 125.7 111.921 125.231 112.256C123.555 113.328 122.683 114.802 122.616 116.611C122.616 120.765 125.03 124.048 129.924 126.393C134.55 128.671 141.054 129.877 149.435 130.011C153.391 130.011 157.078 129.676 160.364 128.939C163.649 128.202 166.666 127.13 169.348 125.589C174.645 122.708 177.327 119.023 177.327 114.601C177.327 111.184 174.98 108.571 170.287 106.695L149.77 98.5214C145.747 96.9804 143.669 94.2334 143.602 90.3475C143.602 84.9876 147.222 80.0967 154.396 75.6077C161.638 71.1188 169.549 68.8408 178.131 68.8408C182.69 68.8408 186.244 69.6448 188.725 71.3198C191.138 73.0618 192.412 75.2057 192.546 77.8857Z" fill="#161616"/>
<path d="M215.421 116.075C215.421 116.209 215.421 116.343 215.354 116.477C215.354 116.611 215.219 116.745 215.085 116.946C213.275 119.224 210.459 121.569 206.637 124.181C204.559 125.655 202.816 126.794 201.274 127.464C199.731 128.201 198.458 128.536 197.452 128.603C196.044 128.603 194.77 128.134 193.764 127.129C193.295 127.732 192.155 128.603 190.211 129.675C187.998 130.881 185.987 131.417 184.042 131.417C181.36 131.417 180.02 130.345 180.02 128.268C180.02 126.861 180.556 125.454 181.562 123.913C182.567 122.44 184.042 120.765 185.987 119.023C187.864 117.415 189.674 116.209 191.351 115.405C193.027 114.668 194.502 114.266 195.843 114.266C198.458 114.266 199.731 115.472 199.731 117.951C199.731 120.631 198.189 123.311 195.105 125.923C195.776 126.593 196.58 126.928 197.586 126.928C199.329 126.928 202.145 125.521 206.101 122.708C207.777 121.502 209.319 120.363 210.727 119.157C212.135 117.951 213.409 116.812 214.549 115.606C214.616 115.472 214.75 115.405 215.018 115.539C215.287 115.673 215.421 115.807 215.421 116.075ZM192.826 125.856C191.82 124.851 191.283 123.511 191.283 121.837C191.283 119.626 191.753 118.085 192.692 117.147C186.59 119.961 183.573 122.908 183.573 125.99C183.573 127.799 184.311 128.804 185.786 128.804C188.065 128.871 190.412 127.866 192.826 125.856ZM198.726 117.482C198.726 116.678 198.256 116.209 197.318 116.075C196.111 116.075 195.105 116.611 194.234 117.616C193.496 118.554 193.027 119.626 192.96 120.899C192.96 122.775 193.295 124.047 193.965 124.65C197.05 122.239 198.659 119.827 198.726 117.482Z" fill="#161616"/>
<path d="M254.493 79.225C254.493 81.4359 251.811 85.5898 246.514 91.8208C241.418 97.5827 235.921 102.809 229.953 107.365C227.07 109.642 224.388 111.585 221.773 113.327C219.159 115.069 216.678 116.476 214.197 117.682L211.18 122.975H223.919C224.925 122.975 225.461 123.444 225.461 124.449C225.461 124.851 224.925 125.119 223.919 125.32L209.034 125.923C206.554 129.273 204.542 131.886 203 133.762C201.525 135.705 200.452 136.911 199.916 137.514C198.709 138.921 197.301 140.529 195.692 142.338C194.083 144.147 192.139 146.157 189.859 148.368C188.384 149.842 186.842 151.249 185.3 152.589C183.758 153.929 182.081 155.202 180.338 156.341C177.455 158.284 174.706 159.758 172.225 160.696C169.745 161.634 167.331 162.17 165.051 162.17C163.643 162.17 162.436 161.768 161.431 161.031C160.425 160.294 159.889 159.49 159.889 158.485C159.889 157.279 160.559 156.743 161.9 156.743C162.101 156.877 162.302 157.078 162.504 157.279C162.839 157.614 163.375 158.15 164.247 158.82C164.917 159.356 165.521 159.758 166.124 160.026C166.728 160.227 167.331 160.428 167.934 160.495C169.007 160.495 170.281 160.227 171.756 159.624C173.231 159.088 174.974 158.217 177.053 157.011C180.875 154.733 184.495 151.852 187.915 148.368C189.993 146.224 192.071 144.013 194.083 141.668C196.094 139.39 198.039 136.978 199.983 134.432C203.402 129.809 205.213 126.928 205.347 125.856H204.475C203.268 125.856 202.665 125.32 202.665 124.248C202.665 123.511 203.671 123.042 205.548 122.975H207.895C208.9 121.367 210.442 118.955 212.521 115.806C214.599 112.657 217.214 108.772 220.433 104.082C233.708 85.3889 243.832 75.942 250.738 75.875C251.677 75.875 252.548 76.21 253.286 76.88C254.157 77.483 254.493 78.287 254.493 79.225ZM251.543 79.225C251.543 78.019 250.671 77.483 248.861 77.483C247.184 77.483 244.234 79.292 240.01 82.9769C237.932 84.7859 236.055 86.7288 234.244 88.7388C232.434 90.7488 230.758 92.8257 229.082 94.9697C227.473 97.2477 225.461 100.129 223.114 103.479C220.768 106.829 218.019 110.781 215.002 115.27C216.209 114.466 217.751 113.461 219.494 112.322C221.237 111.183 223.383 109.843 225.796 108.303C231.026 105.154 236.524 100.397 242.29 94.0987C248.458 87.4658 251.543 82.5079 251.543 79.225Z" fill="#161616"/>
<path d="M257.437 116.073C257.437 116.408 257.303 116.609 257.035 116.81C254.286 119.222 252.073 121.098 250.33 122.505C248.654 123.912 247.447 124.85 246.642 125.319C242.15 128.669 238.731 130.277 236.384 130.277C234.976 130.277 233.568 129.875 232.294 129.004C231.087 128.2 230.484 127.195 230.35 125.922C230.35 124.046 231.355 121.835 233.367 119.222C235.177 116.877 236.719 115.537 238.127 115.202C238.798 115.202 239.133 115.403 239.133 115.872C239.133 116.274 238.328 117.413 236.652 119.222C235.244 121.031 234.44 122.773 234.372 124.448C234.372 126.525 235.311 127.53 237.188 127.597C239.334 127.597 245.771 123.577 256.498 115.604C256.632 115.47 256.766 115.47 256.967 115.47C257.169 115.604 257.303 115.738 257.437 116.073Z" fill="#161616"/>
<path d="M254.507 101.805C254.507 103.212 245.992 111.52 243.914 111.52C241.902 111.52 239.555 109.778 240.896 109.376C250.551 106.562 254.507 100.264 254.507 101.805Z" fill="#161616"/>
<path d="M288.95 116.008C288.95 116.41 288.816 116.678 288.615 116.879C286 119.157 283.787 120.966 281.91 122.44C280.1 123.914 278.625 124.986 277.552 125.723C274.937 127.465 272.59 128.805 270.512 129.676C268.434 130.547 266.489 131.016 264.813 131.016C262.064 131.016 260.589 128.939 260.455 124.785C259.248 125.79 257.438 126.929 255.158 128.068C252.946 129.274 251.135 129.81 249.66 129.81C248.655 129.81 247.716 129.542 246.844 129.073C245.973 128.671 245.57 128.068 245.57 127.264C245.57 124.986 247.649 122.172 251.806 118.956C253.951 117.348 255.963 116.142 257.773 115.338C259.583 114.534 261.259 114.132 262.869 114.132C264.746 114.132 265.752 114.601 265.752 115.539C265.752 116.544 265.416 117.281 264.813 117.75C264.21 118.219 263.539 118.42 262.802 118.42C262.802 118.353 262.802 118.286 262.734 118.085C262.667 117.951 262.6 117.884 262.6 117.75C262.533 117.616 262.466 117.482 262.399 117.281C262.064 116.544 261.461 116.142 260.589 116.075C258.51 116.075 256.231 117.214 253.683 119.425C251.068 121.569 249.794 123.512 249.794 125.254C249.794 126.326 250.197 126.862 250.934 126.929C253.616 126.929 256.566 125.857 259.583 123.78C260.254 123.311 261.394 122.172 263.003 120.43C264.008 119.157 264.88 118.554 265.618 118.688C266.288 118.688 266.623 118.956 266.623 119.425C266.623 119.894 266.221 120.899 265.349 122.44C264.545 123.847 264.142 124.919 264.142 125.589C264.142 127.465 265.081 128.47 266.958 128.47C269.238 128.47 272.926 126.728 278.021 123.244C278.692 122.842 279.832 122.038 281.575 120.765C283.251 119.559 285.531 117.884 288.347 115.807C288.481 115.673 288.615 115.673 288.816 115.673C288.883 115.606 288.95 115.74 288.95 116.008Z" fill="#161616"/>
<path d="M78.5717 38.9668V29.2202H82.4742C83.1912 29.2202 83.7893 29.3265 84.2683 29.5391C84.7474 29.7516 85.1075 30.0467 85.3487 30.4243C85.5898 30.7986 85.7103 31.2301 85.7103 31.7187C85.7103 32.0994 85.6342 32.4342 85.4819 32.7229C85.3296 33.0084 85.1202 33.2432 84.8537 33.4272C84.5904 33.6081 84.289 33.7366 83.9495 33.8127V33.9079C84.3207 33.9238 84.6681 34.0285 84.9917 34.222C85.3185 34.4155 85.5834 34.6868 85.7865 35.0358C85.9895 35.3816 86.0911 35.7941 86.0911 36.2732C86.0911 36.7903 85.9626 37.2519 85.7056 37.6581C85.4518 38.061 85.0758 38.3798 84.5777 38.6146C84.0796 38.8494 83.4656 38.9668 82.7359 38.9668H78.5717ZM80.6324 37.2821H82.3124C82.8866 37.2821 83.3054 37.1726 83.5688 36.9537C83.8321 36.7316 83.9638 36.4366 83.9638 36.0685C83.9638 35.7988 83.8987 35.5609 83.7686 35.3547C83.6386 35.1484 83.453 34.9866 83.2118 34.8692C82.9739 34.7518 82.6899 34.6931 82.36 34.6931H80.6324V37.2821ZM80.6324 33.2987H82.1601C82.4424 33.2987 82.6931 33.2496 82.912 33.1512C83.1341 33.0497 83.3086 32.9069 83.4355 32.7229C83.5656 32.5389 83.6306 32.3184 83.6306 32.0614C83.6306 31.7092 83.5053 31.4252 83.2547 31.2095C83.0072 30.9938 82.655 30.8859 82.1981 30.8859H80.6324V33.2987ZM96.3885 34.0935C96.3885 35.1564 96.1871 36.0606 95.7841 36.8062C95.3844 37.5518 94.8386 38.1213 94.147 38.5147C93.4585 38.9049 92.6844 39.1001 91.8246 39.1001C90.9584 39.1001 90.1811 38.9033 89.4926 38.5099C88.8041 38.1165 88.26 37.547 87.8603 36.8014C87.4605 36.0558 87.2606 35.1532 87.2606 34.0935C87.2606 33.0306 87.4605 32.1264 87.8603 31.3808C88.26 30.6352 88.8041 30.0673 89.4926 29.6771C90.1811 29.2837 90.9584 29.087 91.8246 29.087C92.6844 29.087 93.4585 29.2837 94.147 29.6771C94.8386 30.0673 95.3844 30.6352 95.7841 31.3808C96.1871 32.1264 96.3885 33.0306 96.3885 34.0935ZM94.2993 34.0935C94.2993 33.405 94.1962 32.8244 93.9899 32.3517C93.7869 31.8789 93.4998 31.5204 93.1286 31.2761C92.7573 31.0318 92.3227 30.9097 91.8246 30.9097C91.3264 30.9097 90.8918 31.0318 90.5206 31.2761C90.1494 31.5204 89.8607 31.8789 89.6544 32.3517C89.4514 32.8244 89.3498 33.405 89.3498 34.0935C89.3498 34.782 89.4514 35.3626 89.6544 35.8353C89.8607 36.3081 90.1494 36.6666 90.5206 36.9109C90.8918 37.1552 91.3264 37.2773 91.8246 37.2773C92.3227 37.2773 92.7573 37.1552 93.1286 36.9109C93.4998 36.6666 93.7869 36.3081 93.9899 35.8353C94.1962 35.3626 94.2993 34.782 94.2993 34.0935ZM103.935 29.2202H105.996V35.5498C105.996 36.2605 105.826 36.8823 105.487 37.4153C105.15 37.9484 104.679 38.364 104.073 38.6622C103.467 38.9573 102.761 39.1048 101.955 39.1048C101.146 39.1048 100.439 38.9573 99.8329 38.6622C99.2269 38.364 98.7558 37.9484 98.4195 37.4153C98.0831 36.8823 97.915 36.2605 97.915 35.5498V29.2202H99.9757V35.3737C99.9757 35.7449 100.057 36.0749 100.218 36.3636C100.383 36.6523 100.615 36.8791 100.913 37.0441C101.211 37.2091 101.559 37.2916 101.955 37.2916C102.355 37.2916 102.703 37.2091 102.998 37.0441C103.296 36.8791 103.526 36.6523 103.688 36.3636C103.853 36.0749 103.935 35.7449 103.935 35.3737V29.2202ZM107.32 30.9192V29.2202H115.325V30.9192H112.341V38.9668H110.304V30.9192H107.32ZM118.704 29.2202V38.9668H116.643V29.2202H118.704ZM124.078 35.5783H125.829L126.71 36.711L127.576 37.7199L129.208 39.7663H127.286L126.162 38.3862L125.587 37.5676L124.078 35.5783ZM129.356 34.0935C129.356 35.1564 129.154 36.0606 128.751 36.8062C128.352 37.5518 127.806 38.1213 127.114 38.5147C126.426 38.9049 125.652 39.1001 124.792 39.1001C123.926 39.1001 123.148 38.9033 122.46 38.5099C121.771 38.1165 121.227 37.547 120.828 36.8014C120.428 36.0558 120.228 35.1532 120.228 34.0935C120.228 33.0306 120.428 32.1264 120.828 31.3808C121.227 30.6352 121.771 30.0673 122.46 29.6771C123.148 29.2837 123.926 29.087 124.792 29.087C125.652 29.087 126.426 29.2837 127.114 29.6771C127.806 30.0673 128.352 30.6352 128.751 31.3808C129.154 32.1264 129.356 33.0306 129.356 34.0935ZM127.267 34.0935C127.267 33.405 127.163 32.8244 126.957 32.3517C126.754 31.8789 126.467 31.5204 126.096 31.2761C125.725 31.0318 125.29 30.9097 124.792 30.9097C124.294 30.9097 123.859 31.0318 123.488 31.2761C123.117 31.5204 122.828 31.8789 122.622 32.3517C122.419 32.8244 122.317 33.405 122.317 34.0935C122.317 34.782 122.419 35.3626 122.622 35.8353C122.828 36.3081 123.117 36.6666 123.488 36.9109C123.859 37.1552 124.294 37.2773 124.792 37.2773C125.29 37.2773 125.725 37.1552 126.096 36.9109C126.467 36.6666 126.754 36.3081 126.957 35.8353C127.163 35.3626 127.267 34.782 127.267 34.0935ZM136.903 29.2202H138.963V35.5498C138.963 36.2605 138.793 36.8823 138.454 37.4153C138.118 37.9484 137.647 38.364 137.041 38.6622C136.435 38.9573 135.729 39.1048 134.923 39.1048C134.114 39.1048 133.406 38.9573 132.8 38.6622C132.194 38.364 131.723 37.9484 131.387 37.4153C131.05 36.8823 130.882 36.2605 130.882 35.5498V29.2202H132.943V35.3737C132.943 35.7449 133.024 36.0749 133.186 36.3636C133.351 36.6523 133.582 36.8791 133.881 37.0441C134.179 37.2091 134.526 37.2916 134.923 37.2916C135.323 37.2916 135.67 37.2091 135.965 37.0441C136.263 36.8791 136.493 36.6523 136.655 36.3636C136.82 36.0749 136.903 35.7449 136.903 35.3737V29.2202ZM140.659 38.9668V29.2202H147.226V30.9192H142.719V33.2416H146.888V34.9406H142.719V37.2678H147.245V38.9668H140.659ZM153.646 38.9668H151.438L154.803 29.2202H157.458L160.818 38.9668H158.61L156.168 31.4475H156.092L153.646 38.9668ZM153.508 35.1357H158.724V36.7443H153.508V35.1357ZM161.991 38.9668V29.2202H165.837C166.576 29.2202 167.206 29.3614 167.726 29.6438C168.246 29.923 168.643 30.3116 168.916 30.8097C169.192 31.3047 169.33 31.8758 169.33 32.523C169.33 33.1702 169.19 33.7413 168.911 34.2363C168.632 34.7312 168.227 35.1167 167.697 35.3927C167.171 35.6688 166.533 35.8068 165.784 35.8068H163.333V34.1554H165.451C165.848 34.1554 166.174 34.0872 166.431 33.9507C166.692 33.8111 166.885 33.6192 167.012 33.3749C167.142 33.1274 167.207 32.8435 167.207 32.523C167.207 32.1994 167.142 31.917 167.012 31.6759C166.885 31.4316 166.692 31.2428 166.431 31.1096C166.171 30.9731 165.841 30.9049 165.442 30.9049H164.052V38.9668H161.991ZM171.223 38.9668H169.014L172.379 29.2202H175.035L178.395 38.9668H176.186L173.745 31.4475H173.669L171.223 38.9668ZM171.085 35.1357H176.301V36.7443H171.085V35.1357ZM179.568 38.9668V29.2202H183.413C184.149 29.2202 184.777 29.3519 185.298 29.6152C185.821 29.8754 186.219 30.245 186.492 30.7241C186.768 31.2 186.906 31.76 186.906 32.404C186.906 33.0513 186.767 33.6081 186.487 34.0745C186.208 34.5377 185.804 34.893 185.274 35.1405C184.747 35.388 184.109 35.5117 183.361 35.5117H180.786V33.8555H183.028C183.421 33.8555 183.748 33.8016 184.008 33.6937C184.268 33.5859 184.462 33.4241 184.589 33.2083C184.719 32.9926 184.784 32.7245 184.784 32.404C184.784 32.0804 184.719 31.8076 184.589 31.5855C184.462 31.3634 184.266 31.1952 184.003 31.081C183.743 30.9636 183.415 30.9049 183.018 30.9049H181.628V38.9668H179.568ZM184.831 34.5313L187.254 38.9668H184.979L182.609 34.5313H184.831ZM187.991 30.9192V29.2202H195.996V30.9192H193.012V38.9668H190.975V30.9192H187.991ZM197.314 29.2202H199.856L202.54 35.7687H202.654L205.338 29.2202H207.879V38.9668H205.881V32.6229H205.8L203.277 38.9192H201.916L199.394 32.5992H199.313V38.9668H197.314V29.2202ZM209.577 38.9668V29.2202H216.145V30.9192H211.638V33.2416H215.807V34.9406H211.638V37.2678H216.164V38.9668H209.577ZM225.935 29.2202V38.9668H224.155L219.915 32.8323H219.844V38.9668H217.783V29.2202H219.592L223.799 35.3499H223.884V29.2202H225.935ZM227.267 30.9192V29.2202H235.271V30.9192H232.288V38.9668H230.251V30.9192H227.267ZM241.877 32.0233C241.839 31.6394 241.676 31.3412 241.387 31.1286C241.098 30.916 240.706 30.8097 240.211 30.8097C239.875 30.8097 239.591 30.8573 239.36 30.9525C239.128 31.0445 238.95 31.173 238.827 31.338C238.706 31.503 238.646 31.6902 238.646 31.8996C238.639 32.0741 238.676 32.2264 238.755 32.3564C238.838 32.4865 238.95 32.5992 239.093 32.6943C239.236 32.7863 239.401 32.8672 239.588 32.937C239.775 33.0037 239.975 33.0608 240.188 33.1084L241.063 33.3178C241.488 33.413 241.879 33.5399 242.234 33.6985C242.589 33.8571 242.897 34.0523 243.157 34.2839C243.417 34.5155 243.619 34.7883 243.762 35.1024C243.908 35.4165 243.982 35.7766 243.985 36.1827C243.982 36.7792 243.83 37.2964 243.528 37.7342C243.23 38.1689 242.799 38.5068 242.234 38.7479C241.672 38.9858 240.995 39.1048 240.202 39.1048C239.415 39.1048 238.73 38.9842 238.146 38.7431C237.565 38.502 237.112 38.1451 236.785 37.6723C236.461 37.1964 236.292 36.6079 236.276 35.9067H238.27C238.292 36.2335 238.386 36.5064 238.55 36.7253C238.719 36.941 238.942 37.1044 239.222 37.2155C239.504 37.3233 239.823 37.3773 240.178 37.3773C240.527 37.3773 240.83 37.3265 241.087 37.225C241.347 37.1234 241.549 36.9823 241.691 36.8014C241.834 36.6206 241.906 36.4128 241.906 36.178C241.906 35.9591 241.841 35.775 241.711 35.6259C241.584 35.4768 241.396 35.3499 241.149 35.2452C240.905 35.1405 240.605 35.0453 240.249 34.9597L239.188 34.6931C238.366 34.4933 237.718 34.1808 237.242 33.7556C236.766 33.3305 236.529 32.7578 236.533 32.0376C236.529 31.4475 236.687 30.9319 237.004 30.4909C237.324 30.0499 237.764 29.7056 238.322 29.4582C238.88 29.2107 239.515 29.087 240.226 29.087C240.949 29.087 241.58 29.2107 242.12 29.4582C242.662 29.7056 243.084 30.0499 243.386 30.4909C243.687 30.9319 243.843 31.4427 243.852 32.0233H241.877Z" fill="black"/>
</g>
<defs>
<radialGradient id="paint0_radial_232_324" cx="0" cy="0" r="1" gradientUnits="userSpaceOnUse" gradientTransform="translate(65.4837 102.14) scale(64.9223 64.8753)">
<stop stop-color="#1A55A5"/>
<stop offset="0.3939" stop-color="#1955A2"/>
<stop offset="0.6454" stop-color="#15579A"/>
<stop offset="0.8565" stop-color="#0F598B"/>
<stop offset="1" stop-color="#085B7C"/>
</radialGradient>
<radialGradient id="paint1_radial_232_324" cx="0" cy="0" r="1" gradientUnits="userSpaceOnUse" gradientTransform="translate(65.4837 102.14) scale(64.9223 64.8753)">
<stop stop-color="#1A55A5"/>
<stop offset="0.3939" stop-color="#1955A2"/>
<stop offset="0.6454" stop-color="#15579A"/>
<stop offset="0.8565" stop-color="#0F598B"/>
<stop offset="1" stop-color="#085B7C"/>
</radialGradient>
<clipPath id="clip0_232_324">
<rect width="358" height="168" fill="white"/>
</clipPath>
</defs>
</svg>
