<svg width="181" height="85" viewBox="0 0 181 85" fill="none" xmlns="http://www.w3.org/2000/svg">
<path d="M37.9724 65.4067C41.2606 64.7626 42.7521 66.966 46.9894 69.2372C51.2267 71.5084 59.7691 78.0168 61.5657 75.2711C63.3623 72.5253 59.3962 69.4067 52.3114 60.6948C48.786 56.3558 47.0572 53.5762 48.786 51.7796C49.9724 50.2541 51.9724 49.2711 54.5148 47.0677C58.108 43.9151 67.1928 38.1524 65.2606 35.5084C63.3284 32.8643 59.0233 35.4745 48.4131 39.0677C45.6335 40.0168 43.4979 40.3558 41.8707 40.288C39.125 39.7796 36.6504 38.0168 35.2606 33.4406C30.0741 16.6948 27.2606 18.627 27.2606 18.627C27.2606 18.627 23.9046 18.1185 26.5148 35.4406C27.2267 40.1524 25.7691 42.8304 23.5318 44.4914C22.108 45.2711 20.0402 45.8813 17.125 46.2541C6.04024 47.644 0.989394 47.1694 0.413123 50.3897C-0.163148 53.6101 10.4809 54.8304 15.125 56.0846C18.3792 56.966 20.6165 56.966 22.3453 57.8134C24.6843 58.6609 24.3453 61.9151 23.0572 67.3728C20.4809 78.288 18.2775 82.8304 21.0911 84.5253C23.9046 86.1863 28.7521 76.627 31.5657 72.7287C34.3453 68.8982 34.7182 66.2541 37.9724 65.4067Z" fill="#165CA9"/>
<path d="M38.1365 65.4067C41.4246 64.7626 42.9162 66.966 47.1535 69.2372C51.3907 71.5084 59.9331 78.0168 61.7297 75.2711C63.5263 72.5253 59.5602 69.4067 52.4755 60.6948C48.9501 56.3558 47.2213 53.5762 48.9501 51.7796C50.1365 50.2541 52.1365 49.2711 54.6789 47.0677C58.2721 43.9151 67.3568 38.1524 65.4246 35.5084C63.4924 32.8643 59.1874 35.4745 48.5772 39.0677C45.7975 40.0168 43.6619 40.3558 42.0348 40.288C39.289 39.7796 36.8145 38.0168 35.4246 33.4406C30.2382 16.6948 27.4246 18.627 27.4246 18.627C27.4246 18.627 24.0687 18.1185 26.6789 35.4406C27.3907 40.1524 25.9331 42.8304 23.6958 44.4914C22.2721 45.2711 20.2043 45.8813 17.2891 46.2541C6.20431 47.644 1.15346 47.1694 0.577186 50.3897C0.000914693 53.6101 10.645 54.8304 15.2891 56.0846C18.5433 56.966 20.7806 56.966 22.5094 57.8134C24.8484 58.6609 24.5094 61.9151 23.2213 67.3728C20.645 78.288 18.4416 82.8304 21.2552 84.5253C24.0687 86.1863 28.9162 76.627 31.7297 72.7287C34.5094 68.8982 34.8823 66.2541 38.1365 65.4067Z" fill="url(#paint0_radial_232_235)"/>
<mask id="mask0_232_235" style="mask-type:alpha" maskUnits="userSpaceOnUse" x="0" y="18" width="66" height="67">
<path d="M38.1365 65.4067C41.4246 64.7626 42.9162 66.966 47.1535 69.2372C51.3907 71.5084 59.9331 78.0168 61.7297 75.2711C63.5263 72.5253 59.5602 69.4067 52.4755 60.6948C48.9501 56.3558 47.2213 53.5762 48.9501 51.7796C50.1365 50.2541 52.1365 49.2711 54.6789 47.0677C58.2721 43.9151 67.3568 38.1524 65.4246 35.5084C63.4924 32.8643 59.1874 35.4745 48.5772 39.0677C45.7975 40.0168 43.6619 40.3558 42.0348 40.288C39.289 39.7796 36.8145 38.0168 35.4246 33.4406C30.2382 16.6948 27.4246 18.627 27.4246 18.627C27.4246 18.627 24.0687 18.1185 26.6789 35.4406C27.3907 40.1524 25.9331 42.8304 23.6958 44.4914C22.2721 45.2711 20.2043 45.8813 17.2891 46.2541C6.20431 47.644 1.15346 47.1694 0.577186 50.3897C0.000914693 53.6101 10.645 54.8304 15.2891 56.0846C18.5433 56.966 20.7806 56.966 22.5094 57.8134C24.8484 58.6609 24.5094 61.9151 23.2213 67.3728C20.645 78.288 18.4416 82.8304 21.2552 84.5253C24.0687 86.1863 28.9162 76.627 31.7297 72.7287C34.5094 68.8982 34.8823 66.2541 38.1365 65.4067Z" fill="url(#paint1_radial_232_235)"/>
</mask>
<g mask="url(#mask0_232_235)">
<path d="M36.3749 58.7966C38.2393 58.4237 39.0868 59.6779 41.4936 60.966C43.9004 62.2542 63.4597 79.1355 64.4766 77.5762C65.4936 76.0169 48.5444 61.0338 44.5105 56.1186C42.5105 53.644 41.5275 52.0847 42.5105 51.0677C43.1885 50.2203 44.341 49.644 45.7648 48.3898C47.7987 46.5932 78.2393 31.8474 77.1546 30.3559C76.0699 28.8643 48.3071 41.8135 42.3071 43.8474C40.7139 44.3898 39.5275 44.5932 38.6122 44.5254C37.0529 44.2203 35.6631 43.2372 34.8495 40.661C31.9004 31.1694 22.3071 -2.35599 26.0021 17.9491C26.0021 17.9491 28.4088 31.983 29.9004 41.8135C30.3071 44.4915 29.4597 45.983 28.2054 46.9322C27.3919 47.3728 26.2393 47.7118 24.5783 47.9152C18.2732 48.6949 -4.7776 48.3898 -5.08269 50.2203C-5.42167 52.0508 20.8495 52.7627 23.4597 53.5084C25.2902 54.0169 26.5783 54.0169 27.5614 54.4915C28.8834 54.966 28.68 56.8305 27.9682 59.9152C26.5105 66.1186 17.5275 90.1864 19.1207 91.1355C20.7139 92.0847 31.1885 65.1694 32.7817 62.966C34.3071 60.7966 34.5444 59.305 36.3749 58.7966Z" fill="#08377C"/>
</g>
<path d="M37.9707 65.3731C38.547 65.2714 39.1232 65.2375 39.6995 65.3053C40.2758 65.3731 40.8182 65.5426 41.3605 65.7799C42.4114 66.2544 43.3266 66.9324 44.3097 67.5426C45.2588 68.1867 46.2419 68.7629 47.2588 69.3053C48.2758 69.8477 49.2249 70.4578 50.208 71.068C52.1741 72.2544 54.1063 73.4748 56.1402 74.4917C57.1572 75.0002 58.208 75.4748 59.2927 75.7121C59.8351 75.8138 60.4114 75.8816 60.886 75.6782C61.1233 75.5765 61.2927 75.407 61.4622 75.2036C61.5978 74.9663 61.6995 74.729 61.7673 74.4578C61.9029 73.9494 61.8012 73.407 61.6317 72.8646C61.4283 72.3562 61.1571 71.8477 60.8521 71.3731C60.2419 70.4239 59.4961 69.5426 58.7843 68.6612L54.3097 63.4748C52.8182 61.7121 51.3605 59.9833 50.0046 58.1189C49.3266 57.1697 48.6826 56.2206 48.2419 55.1019C48.0385 54.5595 47.8351 53.9494 47.869 53.3053C47.869 52.6612 48.1741 52.0172 48.6148 51.5765L48.5809 51.6104C49.2588 50.7629 50.0724 50.1528 50.886 49.5426C51.6995 48.9324 52.5131 48.3561 53.2927 47.746C53.6995 47.4409 54.0724 47.1019 54.4453 46.7968C54.8182 46.4578 55.2249 46.1528 55.6317 45.8138C56.4114 45.1697 57.2249 44.5595 58.0385 43.9494C59.6317 42.729 61.2588 41.4748 62.7165 40.1189C63.4283 39.4409 64.1402 38.729 64.7165 37.9155C64.9877 37.5087 65.2249 37.068 65.2927 36.6273C65.3266 36.39 65.3266 36.1867 65.2588 35.9833C65.2249 35.8816 65.1572 35.7799 65.1233 35.6782C65.0555 35.5765 64.9877 35.4748 64.9199 35.407C64.6148 35.068 64.208 34.8307 63.7334 34.729C63.2588 34.6273 62.7843 34.6273 62.2758 34.6951C61.2927 34.7968 60.3097 35.1019 59.3605 35.407C57.4283 36.0172 55.53 36.729 53.6317 37.407C51.7334 38.085 49.8351 38.7629 47.9029 39.407C46.9199 39.7121 45.9368 39.9833 44.9538 40.1867C43.9707 40.39 42.9199 40.4917 41.9029 40.4578C40.7843 40.2206 39.6656 39.8138 38.7165 39.1019C37.7673 38.4239 37.0216 37.4748 36.4453 36.4917C35.869 35.4748 35.4622 34.39 35.0893 33.3053C34.7165 32.2206 34.4114 31.1358 34.0046 30.0511L33.4283 28.4239C33.2249 27.8816 33.0215 27.3731 32.8182 26.8307L32.5131 26.0172L32.1741 25.2375C31.9368 24.729 31.7334 24.1867 31.4622 23.6782C31.2249 23.1697 30.9538 22.6612 30.6826 22.1528C30.547 21.9155 30.4114 21.6443 30.2419 21.407L29.7673 20.6951C29.5978 20.4578 29.4283 20.2545 29.2588 20.0172C29.0893 19.8138 28.886 19.6104 28.6826 19.407L28.3775 19.1358C28.2758 19.068 28.1402 19.0002 28.0385 18.9324C27.9707 18.8985 27.9368 18.8985 27.869 18.8646C27.8012 18.8307 27.7673 18.8307 27.6995 18.8307C27.6317 18.8307 27.5978 18.7968 27.53 18.8307C27.4961 18.8307 27.4283 18.8646 27.3944 18.8646H27.2927L27.2588 18.8985C27.2588 18.8985 27.191 18.8985 27.1232 18.9324C27.0893 18.9324 27.0216 18.9663 26.9877 19.0002C26.9199 19.0341 26.886 19.068 26.8521 19.1019C26.8182 19.1358 26.7504 19.2036 26.7165 19.2375C26.6487 19.3392 26.5809 19.4409 26.5131 19.5765L26.3436 19.9494C26.2419 20.2206 26.1741 20.4917 26.1063 20.7629C26.0385 21.0341 26.0046 21.3053 25.9368 21.5765L25.8351 22.4239C25.8012 22.6951 25.8012 23.0002 25.7673 23.2714C25.7334 23.8477 25.7334 24.4239 25.7334 24.9663C25.7334 25.5426 25.7673 26.1189 25.8012 26.6612L25.8351 27.5087L25.9029 28.3561C25.9707 28.9324 26.0046 29.5087 26.0724 30.0511L26.2758 31.746C26.4114 32.8985 26.5809 34.0172 26.7504 35.1358C26.9199 36.2883 27.0216 37.4409 26.9538 38.6273C26.8521 39.7799 26.6148 40.9663 26.0385 42.0511C25.4961 43.1358 24.6826 44.0172 23.7334 44.729H23.6995C22.7843 45.2375 21.8012 45.5765 20.8182 45.8477C19.8351 46.1189 18.8182 46.2883 17.8012 46.4578C15.7673 46.729 13.7673 46.9324 11.7673 47.1697C9.76731 47.3731 7.73342 47.5426 5.73341 47.8477C4.75036 47.9833 3.76731 48.1528 2.85206 48.4578C1.9368 48.7629 1.12325 49.2714 0.885961 50.1528C0.852063 50.2545 0.81816 50.3561 0.81816 50.4578C0.81816 50.5595 0.784262 50.6612 0.81816 50.729C0.81816 50.8985 0.919857 51.1019 1.02155 51.2714C1.25884 51.6104 1.66562 51.9155 2.0724 52.1528C2.91986 52.6273 3.83511 52.9663 4.78427 53.2714C6.68257 53.8816 8.68257 54.2884 10.6487 54.6951C11.6317 54.8985 12.6148 55.1019 13.6317 55.3392C14.1402 55.4409 14.6148 55.5765 15.1233 55.7121C15.5978 55.8477 16.1063 55.9833 16.5809 56.085C17.5639 56.3223 18.547 56.4917 19.53 56.6612C20.5131 56.8646 21.5639 57.068 22.5131 57.5426H22.4792C23.0893 57.746 23.6317 58.2206 23.9368 58.7968C24.2419 59.3731 24.3436 59.9833 24.3775 60.5934C24.4453 61.7799 24.2758 62.9324 24.0724 64.085C23.6656 66.3561 23.0893 68.5595 22.5131 70.7968L20.7504 77.4409C20.4792 78.5595 20.208 79.6443 20.0724 80.7629C20.0046 81.3053 19.9707 81.8816 20.0046 82.4239C20.0724 82.9663 20.208 83.5087 20.547 83.9155C20.7165 84.1189 20.9199 84.2883 21.1571 84.4239C21.3944 84.5595 21.6317 84.6273 21.869 84.5934C22.3775 84.5595 22.886 84.2544 23.3266 83.9494C24.208 83.2714 24.9538 82.39 25.6317 81.4748C27.0216 79.6782 28.2419 77.7121 29.4622 75.8138C30.0724 74.8646 30.6826 73.8816 31.3605 72.9324C32.0385 72.0172 32.6487 71.068 33.2249 70.085C33.8351 69.1019 34.3775 68.085 35.0893 67.2036C35.4622 66.7629 35.869 66.3561 36.3775 66.0511C36.886 65.746 37.4283 65.5087 37.9707 65.3731ZM38.0046 65.4409C37.4622 65.6104 36.9199 65.8138 36.4453 66.1189C35.9707 66.4239 35.5639 66.8307 35.191 67.2714C34.4792 68.1528 33.9368 69.1697 33.3266 70.1528C32.7504 71.1358 32.1402 72.1189 31.4622 73.0341C30.8182 73.9833 30.208 74.9324 29.5978 75.9155C28.3775 77.8477 27.191 79.8138 25.8351 81.6443C25.1571 82.5595 24.4114 83.4748 23.4961 84.1867C23.0216 84.5256 22.5131 84.8646 21.869 84.9324C21.5639 84.9663 21.2249 84.8646 20.9538 84.6951C20.6826 84.5256 20.4453 84.3561 20.2419 84.1189C19.8351 83.6443 19.6317 83.0341 19.5639 82.4578C19.4961 81.8816 19.53 81.2714 19.5978 80.6951C19.7334 79.5426 19.9707 78.4239 20.2419 77.3053C20.7843 75.068 21.3605 72.8646 21.9368 70.6612C22.4792 68.4578 23.0555 66.2206 23.4283 63.9833C23.5978 62.8646 23.7673 61.746 23.6656 60.6612C23.6317 60.1189 23.53 59.5765 23.2927 59.1358C23.0554 58.6951 22.6826 58.39 22.208 58.2206H22.1741H22.1402C21.2927 57.8138 20.3097 57.6104 19.3266 57.407C18.3436 57.2375 17.3266 57.068 16.3436 56.8307C15.8351 56.729 15.3605 56.5934 14.8521 56.4578C14.3775 56.3222 13.869 56.2206 13.3944 56.1189C12.4114 55.8816 11.4283 55.7121 10.4453 55.4748C8.47918 55.068 6.47918 54.6273 4.51308 54.0172C3.53003 53.7121 2.54698 53.3731 1.63172 52.8307C1.19104 52.5595 0.71647 52.2545 0.377486 51.746C0.207995 51.5087 0.0724017 51.2036 0.0385034 50.8985C0.00460511 50.729 0.0385034 50.5934 0.0385034 50.4239C0.0724017 50.2884 0.106296 50.1528 0.140194 50.0172C0.207991 49.746 0.343586 49.4748 0.513078 49.2375C0.682569 49.0002 0.88596 48.7968 1.12325 48.6273C1.56393 48.2884 2.0724 48.0511 2.58088 47.8816C3.59783 47.5426 4.61477 47.3731 5.59782 47.2375C7.63172 46.9663 9.63172 46.7968 11.6317 46.5934C13.6317 46.3901 15.6656 46.1867 17.6656 45.9155C18.6487 45.7799 19.6317 45.6104 20.6148 45.3392C21.5639 45.1019 22.5131 44.7629 23.3605 44.2883L23.3266 44.3223C24.208 43.6443 24.9877 42.8307 25.4961 41.8477C26.0385 40.8646 26.2758 39.7799 26.3775 38.6612C26.4792 37.5426 26.3775 36.4239 26.208 35.3053C26.0724 34.1528 25.869 33.0341 25.7673 31.8816L25.5978 30.1528C25.53 29.5765 25.4961 29.0002 25.4622 28.4239L25.3944 27.5765L25.3605 26.729C25.3266 26.1528 25.2927 25.5765 25.3266 25.0002C25.3266 24.4239 25.3266 23.8477 25.3605 23.2714C25.3944 22.9663 25.3944 22.6951 25.4283 22.39L25.53 21.5087C25.5639 21.2375 25.6317 20.9324 25.6995 20.6612C25.7673 20.39 25.869 20.085 25.9707 19.8138L26.1741 19.407C26.2419 19.2714 26.3436 19.1358 26.4114 19.0002C26.6148 18.7629 26.8521 18.4917 27.2927 18.4917L27.1571 18.5256C27.5639 18.3222 27.869 18.4917 28.1741 18.5934C28.3097 18.6612 28.4453 18.7629 28.5809 18.8307L28.9199 19.1358C29.1232 19.3392 29.3266 19.5765 29.53 19.7799C29.6995 20.0172 29.869 20.2545 30.0385 20.4917L30.5131 21.2375C30.6826 21.4748 30.7843 21.746 30.9538 21.9833C31.2249 22.4917 31.4961 23.0002 31.7334 23.5426C32.7165 25.6443 33.4961 27.7799 34.2419 29.9494C34.6148 31.0341 34.9538 32.1189 35.3266 33.2375C35.6656 34.3222 36.0724 35.407 36.6487 36.39C37.2249 37.3731 37.9368 38.2884 38.8521 38.9324C39.7673 39.6104 40.8182 40.0511 41.9368 40.2545C42.9199 40.2884 43.9368 40.1867 44.9199 39.9833C45.9029 39.7799 46.886 39.5087 47.8351 39.2036C49.7673 38.5595 51.6656 37.8816 53.5639 37.1697C55.4622 36.4578 57.3605 35.746 59.2588 35.1019C60.2419 34.7968 61.191 34.4917 62.2419 34.3562C62.7504 34.2884 63.2927 34.2545 63.8012 34.3901C64.0724 34.4239 64.3097 34.5256 64.5809 34.6612C64.8182 34.7968 65.0555 34.9663 65.2249 35.1697C65.3266 35.2714 65.3944 35.3731 65.4961 35.4748C65.5639 35.6104 65.6656 35.7121 65.6995 35.8477C65.8012 36.1189 65.8012 36.4239 65.7673 36.6951C65.6656 37.2375 65.4283 37.7121 65.1233 38.1528C64.547 39.0341 63.8351 39.746 63.0894 40.4578C61.5978 41.8477 60.0046 43.1019 58.4114 44.3561C57.5978 44.9663 56.8182 45.6104 56.0385 46.2206C55.6317 46.5256 55.2588 46.8646 54.886 47.1697C54.5131 47.5087 54.1063 47.8477 53.6995 48.1528C52.9199 48.7968 52.0724 49.3731 51.2588 49.9833C50.4453 50.5934 49.6656 51.2036 49.0555 51.9494C48.6826 52.3223 48.4792 52.7968 48.4792 53.3053C48.4453 53.8138 48.6148 54.3561 48.8182 54.8307C49.2249 55.8477 49.869 56.7968 50.5131 57.7121C51.8351 59.5426 53.3266 61.3053 54.7843 63.068C56.2419 64.8307 57.7334 66.5595 59.191 68.3222C59.9029 69.2036 60.6148 70.1189 61.2588 71.1019C61.5639 71.6104 61.869 72.1189 62.0385 72.6612C62.2419 73.2036 62.3436 73.8477 62.1741 74.4578C62.1063 74.7629 61.9707 75.0341 61.8012 75.2714C61.6317 75.5426 61.3605 75.746 61.0894 75.8816C60.4792 76.1189 59.869 76.0172 59.2927 75.9155C58.1402 75.6443 57.0893 75.1697 56.0724 74.6273C54.0385 73.5765 52.1063 72.3222 50.1741 71.1019C49.191 70.4917 48.2419 69.8816 47.2249 69.3392C46.208 68.7968 45.2249 68.1867 44.2758 67.5765C43.3266 66.9663 42.3775 66.2883 41.3605 65.7799C40.8521 65.5426 40.3097 65.3731 39.7334 65.3053C39.1233 65.3053 38.547 65.3392 38.0046 65.4409Z" fill="#08377C"/>
<path d="M31.3144 59.1019C32.1007 59.1019 32.7381 58.4644 32.7381 57.6781C32.7381 56.8918 32.1007 56.2544 31.3144 56.2544C30.528 56.2544 29.8906 56.8918 29.8906 57.6781C29.8906 58.4644 30.528 59.1019 31.3144 59.1019Z" fill="#C3DDF4"/>
<path d="M30.3008 62.1867C30.8812 62.1867 31.3517 61.7162 31.3517 61.1358C31.3517 60.5554 30.8812 60.085 30.3008 60.085C29.7205 60.085 29.25 60.5554 29.25 61.1358C29.25 61.7162 29.7205 62.1867 30.3008 62.1867Z" fill="#C3DDF4"/>
<path d="M28.9149 64.4918C29.2518 64.4918 29.525 64.2186 29.525 63.8817C29.525 63.5447 29.2518 63.2715 28.9149 63.2715C28.5779 63.2715 28.3047 63.5447 28.3047 63.8817C28.3047 64.2186 28.5779 64.4918 28.9149 64.4918Z" fill="#C3DDF4"/>
<path d="M28.0327 67.7798C28.6505 67.7798 29.1514 67.2789 29.1514 66.6611C29.1514 66.0433 28.6505 65.5425 28.0327 65.5425C27.4149 65.5425 26.9141 66.0433 26.9141 66.6611C26.9141 67.2789 27.4149 67.7798 28.0327 67.7798Z" fill="#C3DDF4"/>
<path d="M28.397 70.6948C28.8837 70.6948 29.2783 70.3002 29.2783 69.8135C29.2783 69.3267 28.8837 68.9321 28.397 68.9321C27.9102 68.9321 27.5156 69.3267 27.5156 69.8135C27.5156 70.3002 27.9102 70.6948 28.397 70.6948Z" fill="#C3DDF4"/>
<path d="M26.1733 72.6611C26.7911 72.6611 27.292 72.1603 27.292 71.5425C27.292 70.9247 26.7911 70.4238 26.1733 70.4238C25.5555 70.4238 25.0547 70.9247 25.0547 71.5425C25.0547 72.1603 25.5555 72.6611 26.1733 72.6611Z" fill="#C3DDF4"/>
<path d="M26.1001 75.5425C26.5869 75.5425 26.9815 75.1479 26.9815 74.6611C26.9815 74.1744 26.5869 73.7798 26.1001 73.7798C25.6133 73.7798 25.2188 74.1744 25.2188 74.6611C25.2188 75.1479 25.6133 75.5425 26.1001 75.5425Z" fill="#C3DDF4"/>
<path d="M24.3422 78.0173C24.7728 78.0173 25.1218 77.6683 25.1218 77.2377C25.1218 76.8071 24.7728 76.458 24.3422 76.458C23.9116 76.458 23.5625 76.8071 23.5625 77.2377C23.5625 77.6683 23.9116 78.0173 24.3422 78.0173Z" fill="#C3DDF4"/>
<path d="M23.5926 81.2715C24.1917 81.2715 24.6773 80.7859 24.6773 80.1868C24.6773 79.5877 24.1917 79.1021 23.5926 79.1021C22.9935 79.1021 22.5078 79.5877 22.5078 80.1868C22.5078 80.7859 22.9935 81.2715 23.5926 81.2715Z" fill="#C3DDF4"/>
<path d="M22.4047 83.678C22.8353 83.678 23.1843 83.3289 23.1843 82.8983C23.1843 82.4677 22.8353 82.1187 22.4047 82.1187C21.9741 82.1187 21.625 82.4677 21.625 82.8983C21.625 83.3289 21.9741 83.678 22.4047 83.678Z" fill="#C3DDF4"/>
<path d="M29.4159 52.4578C30.2022 52.4578 30.8396 51.8204 30.8396 51.0341C30.8396 50.2478 30.2022 49.6104 29.4159 49.6104C28.6296 49.6104 27.9922 50.2478 27.9922 51.0341C27.9922 51.8204 28.6296 52.4578 29.4159 52.4578Z" fill="#C3DDF4"/>
<path d="M25.7852 51.8473C26.3656 51.8473 26.8361 51.3768 26.8361 50.7965C26.8361 50.2161 26.3656 49.7456 25.7852 49.7456C25.2049 49.7456 24.7344 50.2161 24.7344 50.7965C24.7344 51.3768 25.2049 51.8473 25.7852 51.8473Z" fill="#C3DDF4"/>
<path d="M22.743 51.7794C23.08 51.7794 23.3531 51.5062 23.3531 51.1693C23.3531 50.8323 23.08 50.5591 22.743 50.5591C22.406 50.5591 22.1328 50.8323 22.1328 51.1693C22.1328 51.5062 22.406 51.7794 22.743 51.7794Z" fill="#C3DDF4"/>
<path d="M19.8218 52.2202C20.4396 52.2202 20.9404 51.7194 20.9404 51.1015C20.9404 50.4837 20.4396 49.9829 19.8218 49.9829C19.204 49.9829 18.7031 50.4837 18.7031 51.1015C18.7031 51.7194 19.204 52.2202 19.8218 52.2202Z" fill="#C3DDF4"/>
<path d="M16.9751 50.5254C17.4619 50.5254 17.8565 50.1308 17.8565 49.6441C17.8565 49.1573 17.4619 48.7627 16.9751 48.7627C16.4883 48.7627 16.0938 49.1573 16.0938 49.6441C16.0938 50.1308 16.4883 50.5254 16.9751 50.5254Z" fill="#C3DDF4"/>
<path d="M14.6343 52.2881C15.2521 52.2881 15.7529 51.7872 15.7529 51.1694C15.7529 50.5516 15.2521 50.0508 14.6343 50.0508C14.0165 50.0508 13.5156 50.5516 13.5156 51.1694C13.5156 51.7872 14.0165 52.2881 14.6343 52.2881Z" fill="#C3DDF4"/>
<path d="M11.6157 51.0679C12.1025 51.0679 12.4971 50.6733 12.4971 50.1865C12.4971 49.6998 12.1025 49.3052 11.6157 49.3052C11.129 49.3052 10.7344 49.6998 10.7344 50.1865C10.7344 50.6733 11.129 51.0679 11.6157 51.0679Z" fill="#C3DDF4"/>
<path d="M8.63904 51.7458C9.06963 51.7458 9.4187 51.3968 9.4187 50.9662C9.4187 50.5356 9.06963 50.1865 8.63904 50.1865C8.20844 50.1865 7.85938 50.5356 7.85938 50.9662C7.85938 51.3968 8.20844 51.7458 8.63904 51.7458Z" fill="#C3DDF4"/>
<path d="M5.62381 51.7457C6.2229 51.7457 6.70856 51.26 6.70856 50.6609C6.70856 50.0618 6.2229 49.5762 5.62381 49.5762C5.02472 49.5762 4.53906 50.0618 4.53906 50.6609C4.53906 51.26 5.02472 51.7457 5.62381 51.7457Z" fill="#C3DDF4"/>
<path d="M2.67028 51.6443C3.10088 51.6443 3.44994 51.2952 3.44994 50.8646C3.44994 50.434 3.10088 50.085 2.67028 50.085C2.23969 50.085 1.89062 50.434 1.89062 50.8646C1.89062 51.2952 2.23969 51.6443 2.67028 51.6443Z" fill="#C3DDF4"/>
<path d="M34.1972 48.3221C34.9835 48.3221 35.6209 47.6846 35.6209 46.8983C35.6209 46.112 34.9835 45.4746 34.1972 45.4746C33.4109 45.4746 32.7734 46.112 32.7734 46.8983C32.7734 47.6846 33.4109 48.3221 34.1972 48.3221Z" fill="#C3DDF4"/>
<path d="M33.1915 44.4576C33.7718 44.4576 34.2423 43.9872 34.2423 43.4068C34.2423 42.8264 33.7718 42.356 33.1915 42.356C32.6111 42.356 32.1406 42.8264 32.1406 43.4068C32.1406 43.9872 32.6111 44.4576 33.1915 44.4576Z" fill="#C3DDF4"/>
<path d="M32.8836 40.9659C33.2206 40.9659 33.4938 40.6928 33.4938 40.3558C33.4938 40.0188 33.2206 39.7456 32.8836 39.7456C32.5466 39.7456 32.2734 40.0188 32.2734 40.3558C32.2734 40.6928 32.5466 40.9659 32.8836 40.9659Z" fill="#C3DDF4"/>
<path d="M32.1265 38.6611C32.7443 38.6611 33.2451 38.1603 33.2451 37.5425C33.2451 36.9247 32.7443 36.4238 32.1265 36.4238C31.5086 36.4238 31.0078 36.9247 31.0078 37.5425C31.0078 38.1603 31.5086 38.6611 32.1265 38.6611Z" fill="#C3DDF4"/>
<path d="M30.1001 35.9492C30.5869 35.9492 30.9815 35.5546 30.9815 35.0679C30.9815 34.5811 30.5869 34.1865 30.1001 34.1865C29.6133 34.1865 29.2188 34.5811 29.2188 35.0679C29.2188 35.5546 29.6133 35.9492 30.1001 35.9492Z" fill="#C3DDF4"/>
<path d="M31.0561 33.5761C31.674 33.5761 32.1748 33.0753 32.1748 32.4575C32.1748 31.8397 31.674 31.3389 31.0561 31.3389C30.4383 31.3389 29.9375 31.8397 29.9375 32.4575C29.9375 33.0753 30.4383 33.5761 31.0561 33.5761Z" fill="#C3DDF4"/>
<path d="M29.4282 30.627C29.915 30.627 30.3096 30.2324 30.3096 29.7456C30.3096 29.2589 29.915 28.8643 29.4282 28.8643C28.9415 28.8643 28.5469 29.2589 28.5469 29.7456C28.5469 30.2324 28.9415 30.627 29.4282 30.627Z" fill="#C3DDF4"/>
<path d="M29.5218 27.4407C29.9524 27.4407 30.3015 27.0916 30.3015 26.661C30.3015 26.2304 29.9524 25.8813 29.5218 25.8813C29.0913 25.8813 28.7422 26.2304 28.7422 26.661C28.7422 27.0916 29.0913 27.4407 29.5218 27.4407Z" fill="#C3DDF4"/>
<path d="M28.5691 24.8643C29.1682 24.8643 29.6539 24.3787 29.6539 23.7796C29.6539 23.1805 29.1682 22.6948 28.5691 22.6948C27.97 22.6948 27.4844 23.1805 27.4844 23.7796C27.4844 24.3787 27.97 24.8643 28.5691 24.8643Z" fill="#C3DDF4"/>
<path d="M28.1 21.6101C28.5306 21.6101 28.8796 21.261 28.8796 20.8304C28.8796 20.3998 28.5306 20.0508 28.1 20.0508C27.6694 20.0508 27.3203 20.3998 27.3203 20.8304C27.3203 21.261 27.6694 21.6101 28.1 21.6101Z" fill="#C3DDF4"/>
<path d="M39.7362 50.763C40.5225 50.763 41.16 50.1256 41.16 49.3392C41.16 48.5529 40.5225 47.9155 39.7362 47.9155C38.9499 47.9155 38.3125 48.5529 38.3125 49.3392C38.3125 50.1256 38.9499 50.763 39.7362 50.763Z" fill="#C3DDF4"/>
<path d="M43.0274 48.8307C43.6078 48.8307 44.0783 48.3602 44.0783 47.7799C44.0783 47.1995 43.6078 46.729 43.0274 46.729C42.447 46.729 41.9766 47.1995 41.9766 47.7799C41.9766 48.3602 42.447 48.8307 43.0274 48.8307Z" fill="#C3DDF4"/>
<path d="M45.5008 46.6271C45.8378 46.6271 46.111 46.3539 46.111 46.0169C46.111 45.6799 45.8378 45.4067 45.5008 45.4067C45.1638 45.4067 44.8906 45.6799 44.8906 46.0169C44.8906 46.3539 45.1638 46.6271 45.5008 46.6271Z" fill="#C3DDF4"/>
<path d="M48.1108 45.7798C48.7286 45.7798 49.2295 45.2789 49.2295 44.6611C49.2295 44.0433 48.7286 43.5425 48.1108 43.5425C47.493 43.5425 46.9922 44.0433 46.9922 44.6611C46.9922 45.2789 47.493 45.7798 48.1108 45.7798Z" fill="#C3DDF4"/>
<path d="M51.2954 45.4409C51.7822 45.4409 52.1768 45.0463 52.1768 44.5596C52.1768 44.0728 51.7822 43.6782 51.2954 43.6782C50.8087 43.6782 50.4141 44.0728 50.4141 44.5596C50.4141 45.0463 50.8087 45.4409 51.2954 45.4409Z" fill="#C3DDF4"/>
<path d="M52.6187 43.2036C53.2365 43.2036 53.7373 42.7028 53.7373 42.0849C53.7373 41.4671 53.2365 40.9663 52.6187 40.9663C52.0008 40.9663 51.5 41.4671 51.5 42.0849C51.5 42.7028 52.0008 43.2036 52.6187 43.2036Z" fill="#C3DDF4"/>
<path d="M55.7329 42.3901C56.2197 42.3901 56.6143 41.9956 56.6143 41.5088C56.6143 41.022 56.2197 40.6274 55.7329 40.6274C55.2462 40.6274 54.8516 41.022 54.8516 41.5088C54.8516 41.9956 55.2462 42.3901 55.7329 42.3901Z" fill="#C3DDF4"/>
<path d="M57.975 40.1526C58.4056 40.1526 58.7546 39.8035 58.7546 39.3729C58.7546 38.9423 58.4056 38.5933 57.975 38.5933C57.5444 38.5933 57.1953 38.9423 57.1953 39.3729C57.1953 39.8035 57.5444 40.1526 57.975 40.1526Z" fill="#C3DDF4"/>
<path d="M60.7566 39.2715C61.3557 39.2715 61.8414 38.7859 61.8414 38.1868C61.8414 37.5877 61.3557 37.1021 60.7566 37.1021C60.1575 37.1021 59.6719 37.5877 59.6719 38.1868C59.6719 38.7859 60.1575 39.2715 60.7566 39.2715Z" fill="#C3DDF4"/>
<path d="M63.264 37.3391C63.6946 37.3391 64.0437 36.99 64.0437 36.5595C64.0437 36.1289 63.6946 35.7798 63.264 35.7798C62.8334 35.7798 62.4844 36.1289 62.4844 36.5595C62.4844 36.99 62.8334 37.3391 63.264 37.3391Z" fill="#C3DDF4"/>
<path d="M40.3378 57.5765C41.1241 57.5765 41.7615 56.939 41.7615 56.1527C41.7615 55.3664 41.1241 54.729 40.3378 54.729C39.5515 54.729 38.9141 55.3664 38.9141 56.1527C38.9141 56.939 39.5515 57.5765 40.3378 57.5765Z" fill="#C3DDF4"/>
<path d="M43.1837 59.4747C43.764 59.4747 44.2345 59.0043 44.2345 58.4239C44.2345 57.8435 43.764 57.373 43.1837 57.373C42.6033 57.373 42.1328 57.8435 42.1328 58.4239C42.1328 59.0043 42.6033 59.4747 43.1837 59.4747Z" fill="#C3DDF4"/>
<path d="M45.1805 61.339C45.5175 61.339 45.7907 61.0658 45.7907 60.7288C45.7907 60.3918 45.5175 60.1187 45.1805 60.1187C44.8435 60.1187 44.5703 60.3918 44.5703 60.7288C44.5703 61.0658 44.8435 61.339 45.1805 61.339Z" fill="#C3DDF4"/>
<path d="M47.3921 63.7461C48.0099 63.7461 48.5107 63.2452 48.5107 62.6274C48.5107 62.0096 48.0099 61.5088 47.3921 61.5088C46.7743 61.5088 46.2734 62.0096 46.2734 62.6274C46.2734 63.2452 46.7743 63.7461 47.3921 63.7461Z" fill="#C3DDF4"/>
<path d="M50.4751 64.356C50.9619 64.356 51.3565 63.9614 51.3565 63.4746C51.3565 62.9879 50.9619 62.5933 50.4751 62.5933C49.9883 62.5933 49.5938 62.9879 49.5938 63.4746C49.5938 63.9614 49.9883 64.356 50.4751 64.356Z" fill="#C3DDF4"/>
<path d="M51.2124 67.3052C51.8302 67.3052 52.331 66.8043 52.331 66.1865C52.331 65.5687 51.8302 65.0679 51.2124 65.0679C50.5946 65.0679 50.0938 65.5687 50.0938 66.1865C50.0938 66.8043 50.5946 67.3052 51.2124 67.3052Z" fill="#C3DDF4"/>
<path d="M54.1001 68.3223C54.5869 68.3223 54.9815 67.9277 54.9815 67.4409C54.9815 66.9542 54.5869 66.5596 54.1001 66.5596C53.6133 66.5596 53.2188 66.9542 53.2188 67.4409C53.2188 67.9277 53.6133 68.3223 54.1001 68.3223Z" fill="#C3DDF4"/>
<path d="M55.7953 70.8308C56.2259 70.8308 56.5749 70.4817 56.5749 70.0511C56.5749 69.6205 56.2259 69.2715 55.7953 69.2715C55.3647 69.2715 55.0156 69.6205 55.0156 70.0511C55.0156 70.4817 55.3647 70.8308 55.7953 70.8308Z" fill="#C3DDF4"/>
<path d="M58.241 72.9322C58.8401 72.9322 59.3257 72.4465 59.3257 71.8474C59.3257 71.2484 58.8401 70.7627 58.241 70.7627C57.6419 70.7627 57.1562 71.2484 57.1562 71.8474C57.1562 72.4465 57.6419 72.9322 58.241 72.9322Z" fill="#C3DDF4"/>
<path d="M60.2718 74.7629C60.7024 74.7629 61.0515 74.4139 61.0515 73.9833C61.0515 73.5527 60.7024 73.2036 60.2718 73.2036C59.8412 73.2036 59.4922 73.5527 59.4922 73.9833C59.4922 74.4139 59.8412 74.7629 60.2718 74.7629Z" fill="#C3DDF4"/>
<path d="M127 14.1494C128.153 14.624 129.271 15.2003 130.39 15.7765C130.932 16.0816 131.475 16.3867 132.017 16.6918C132.559 16.9969 133.102 17.3359 133.644 17.6748C134.695 18.3528 135.746 19.0647 136.763 19.8104C137.78 20.5562 138.763 21.3698 139.712 22.1833C140.661 23.0308 141.576 23.9121 142.424 24.8613C142.864 25.3359 143.271 25.8443 143.678 26.3528C144.085 26.8613 144.458 27.4037 144.797 27.946C145.475 29.0647 146.085 30.2511 146.492 31.5392C146.898 32.8274 147.102 34.2172 147 35.607L145.61 34.5901C145.915 34.4884 146.186 34.3867 146.458 34.3189C146.729 34.2511 147 34.1494 147.305 34.0816C147.847 33.946 148.424 33.8104 148.966 33.7087C149.542 33.607 150.085 33.5054 150.661 33.4376C151.237 33.3698 151.78 33.302 152.356 33.2681C152.932 33.2342 153.475 33.2003 154.051 33.2003C154.627 33.2003 155.169 33.2003 155.746 33.2003C156.322 33.2003 156.864 33.2681 157.441 33.302C158.017 33.3698 158.559 33.4037 159.102 33.5053C159.644 33.5731 160.22 33.6748 160.763 33.7765C161.305 33.8782 161.847 34.0138 162.39 34.1494C162.932 34.285 163.475 34.4545 164.017 34.5901C164.559 34.7596 165.068 34.9291 165.61 35.1325C166.119 35.3359 166.661 35.5392 167.169 35.7426C167.441 35.8443 167.678 35.946 167.949 36.0816L168.695 36.4545C169.203 36.6918 169.678 36.963 170.186 37.2342C170.661 37.5053 171.136 37.8104 171.61 38.0816C171.102 37.8782 170.593 37.6748 170.051 37.5053C169.542 37.3359 169.034 37.1325 168.492 36.963C167.983 36.7935 167.441 36.624 166.932 36.4884C166.424 36.3189 165.881 36.2172 165.339 36.0816C164.797 35.946 164.288 35.8443 163.746 35.7426C163.203 35.6409 162.695 35.5392 162.153 35.4715C161.61 35.3698 161.068 35.3359 160.559 35.2681C160.017 35.2003 159.475 35.1325 158.966 35.1325C158.424 35.0986 157.881 35.0647 157.373 35.0647C156.831 35.0647 156.288 35.0647 155.78 35.0647C155.237 35.0647 154.695 35.0986 154.186 35.1325C153.644 35.1664 153.136 35.2003 152.593 35.2681C151.542 35.3698 150.492 35.5731 149.441 35.7765C148.932 35.8782 148.39 36.0138 147.881 36.1494C147.644 36.2172 147.373 36.285 147.136 36.3528C146.898 36.4206 146.627 36.5223 146.424 36.5901L144.932 37.1664L145.034 35.5731C145.102 34.4884 144.966 33.3698 144.627 32.285C144.288 31.2003 143.78 30.1494 143.169 29.1325C142.864 28.624 142.525 28.1494 142.186 27.6409C141.847 27.1664 141.475 26.6918 141.102 26.2172C140.729 25.7426 140.322 25.302 139.915 24.8613C139.508 24.4206 139.068 23.9799 138.661 23.5392C137.814 22.6918 136.898 21.8443 135.949 21.0308C135.034 20.2172 134.085 19.4376 133.102 18.6579C132.627 18.285 132.119 17.8782 131.644 17.5053C131.136 17.1325 130.661 16.7596 130.153 16.3867C129.034 15.5392 128.017 14.8274 127 14.1494Z" fill="#08377C"/>
<path d="M147.469 11C148.316 11.4746 149.13 12.0508 149.909 12.5932C150.316 12.8644 150.689 13.1695 151.096 13.4746C151.469 13.7797 151.876 14.0847 152.248 14.3898C152.994 15 153.74 15.6441 154.452 16.322C154.791 16.661 155.164 17 155.503 17.3729C155.842 17.7119 156.181 18.0847 156.52 18.4576C156.859 18.8305 157.164 19.2034 157.503 19.5763C157.808 19.9492 158.113 20.3559 158.418 20.7627L158.859 21.3729L159.265 21.983C159.401 22.1864 159.537 22.3898 159.672 22.6271C159.808 22.8305 159.943 23.0678 160.045 23.2712C160.147 23.5085 160.282 23.7119 160.384 23.9492L160.723 24.6271C160.926 25.1017 161.13 25.5763 161.265 26.0508L161.401 26.4237L161.503 26.7966C161.57 27.0339 161.638 27.3051 161.672 27.5424C161.706 27.8136 161.774 28.0508 161.808 28.322L161.876 29.1017L160.859 28.322C161.096 28.2542 161.333 28.2203 161.537 28.2203C161.774 28.1864 161.977 28.1525 162.215 28.1525C162.655 28.0847 163.096 28.0847 163.537 28.0508C163.977 28.0508 164.418 28.0169 164.859 28.0169C165.299 28.0508 165.74 28.0169 166.181 28.0847C166.621 28.1186 167.062 28.1186 167.503 28.1864C167.943 28.2542 168.384 28.2881 168.825 28.3559L170.113 28.5932C170.553 28.6949 170.96 28.7966 171.401 28.9322C171.842 29.0339 172.248 29.1695 172.655 29.3051L173.265 29.5085C173.469 29.5763 173.672 29.6441 173.876 29.7458L175.096 30.2542C175.503 30.4237 175.876 30.6271 176.248 30.8305C176.621 31.0339 177.028 31.2034 177.401 31.4746C177.774 31.7119 178.147 31.9491 178.486 32.1525C178.859 32.3898 179.198 32.661 179.537 32.8983L180.553 33.678L179.401 33.1017C179.028 32.8983 178.655 32.6949 178.248 32.5254C177.842 32.3559 177.469 32.1864 177.096 32.0169C176.723 31.8136 176.316 31.7119 175.909 31.5424C175.503 31.4068 175.13 31.2373 174.723 31.1017L173.503 30.7288C173.096 30.5932 172.689 30.5254 172.282 30.4237C171.876 30.322 171.469 30.2203 171.062 30.1525C170.655 30.0847 170.248 29.9831 169.842 29.9153L168.587 29.7458C168.181 29.7119 167.774 29.678 167.333 29.6441C166.926 29.6102 166.52 29.6102 166.079 29.5763C165.672 29.5424 165.265 29.5763 164.825 29.5763C164.418 29.5763 164.011 29.6102 163.57 29.6102C163.164 29.6441 162.757 29.678 162.35 29.7458C161.943 29.7797 161.537 29.8475 161.164 29.9153L160.248 30.0847L160.147 29.1356L160.079 28.4915C160.045 28.2881 160.011 28.0508 159.977 27.8475C159.943 27.6102 159.876 27.4068 159.808 27.2034L159.74 26.8644L159.638 26.5254C159.503 26.0847 159.333 25.678 159.164 25.2373C158.96 24.8305 158.791 24.3898 158.553 23.9831C158.452 23.7797 158.35 23.5763 158.215 23.3729C158.113 23.1695 157.977 22.9661 157.876 22.7627L157.503 22.1525L157.13 21.5763C156.859 21.1695 156.587 20.7966 156.316 20.4237C156.045 20.0508 155.74 19.678 155.469 19.3051C155.164 18.9322 154.859 18.5593 154.553 18.1864C154.248 17.8136 153.943 17.4746 153.604 17.1017C152.96 16.3898 152.316 15.678 151.638 15C150.96 14.322 150.282 13.6441 149.57 12.9661C148.926 12.2881 148.215 11.6441 147.469 11Z" fill="#08377C"/>
<path d="M115 0C115.814 0.0677966 116.627 0.20339 117.441 0.338983C118.254 0.508475 119.068 0.677965 119.847 0.915253C120.254 1.01695 120.627 1.15254 121.034 1.28814C121.441 1.42373 121.814 1.55932 122.22 1.69492C122.593 1.83051 123 2 123.373 2.16949C123.746 2.33898 124.119 2.50847 124.492 2.71186C124.864 2.88136 125.237 3.11864 125.61 3.32203C125.983 3.52542 126.322 3.76271 126.661 4C127 4.23729 127.339 4.50847 127.678 4.74576L128.186 5.15254L128.661 5.59322C128.831 5.72881 128.966 5.8983 129.102 6.06779C129.237 6.23729 129.407 6.37288 129.542 6.54237C129.814 6.88136 130.085 7.22034 130.322 7.55932C130.559 7.9322 130.797 8.27119 131 8.67797C131.203 9.05085 131.373 9.45763 131.542 9.86441L130.525 9.55932C130.864 9.35593 131.169 9.15254 131.475 8.98305C131.78 8.81356 132.119 8.64407 132.458 8.47458C132.797 8.30508 133.102 8.16949 133.441 8C133.78 7.86441 134.119 7.72881 134.458 7.59322C135.136 7.32203 135.847 7.11864 136.525 6.91525C136.864 6.81356 137.237 6.74576 137.576 6.67796C137.949 6.61017 138.288 6.54237 138.661 6.47458C139.034 6.40678 139.373 6.37288 139.746 6.33898C140.119 6.30508 140.458 6.27119 140.831 6.27119C141.203 6.27119 141.542 6.27119 141.915 6.27119C142.288 6.30508 142.627 6.30509 143 6.37288C143.373 6.40678 143.712 6.47458 144.085 6.54237C144.424 6.61017 144.797 6.67797 145.136 6.81356L145.644 6.98305L146.153 7.15254C146.492 7.25424 146.797 7.42373 147.136 7.59322C146.797 7.52542 146.458 7.38983 146.085 7.35593L145.576 7.25423L145.068 7.18644C144.898 7.15254 144.729 7.15254 144.559 7.11864C144.39 7.11864 144.22 7.08474 144.051 7.08474C143.712 7.05085 143.339 7.05085 143 7.05085C142.661 7.05085 142.288 7.05085 141.949 7.08474C141.61 7.11864 141.271 7.11864 140.898 7.18644C140.559 7.22034 140.22 7.28814 139.881 7.32204C139.542 7.38983 139.203 7.45763 138.864 7.52542C138.525 7.59322 138.186 7.69491 137.847 7.79661C137.508 7.8983 137.169 8 136.864 8.10169C136.22 8.30508 135.542 8.54237 134.932 8.81356C134.288 9.08475 133.678 9.38983 133.068 9.69492C132.763 9.86441 132.458 10 132.153 10.2034C131.847 10.3729 131.542 10.5424 131.305 10.7458L130.627 11.1864L130.288 10.4407C130.119 10.1017 129.983 9.72881 129.814 9.38983C129.644 9.05085 129.441 8.71186 129.237 8.40678C129 8.1017 128.797 7.76271 128.525 7.49153C128.39 7.32204 128.288 7.18644 128.153 7.05085C128.017 6.91525 127.881 6.74576 127.746 6.61017L127.339 6.20339L126.898 5.79661C126.593 5.52543 126.288 5.28813 125.983 5.05085C125.678 4.81356 125.339 4.57627 125 4.37288C124.661 4.16949 124.322 3.9322 123.983 3.72881C123.644 3.52542 123.271 3.32203 122.932 3.11864C122.559 2.94915 122.22 2.74576 121.847 2.57627C121.136 2.23729 120.39 1.8983 119.61 1.59322C119.237 1.45763 118.864 1.28813 118.458 1.15254C118.085 1.01695 117.678 0.881355 117.305 0.745762C116.593 0.440677 115.814 0.20339 115 0Z" fill="#08377C"/>
<path d="M97.3484 39.4068C97.3484 41.339 96.4331 43.1018 94.5687 44.6272C92.6704 46.1526 90.6704 46.9323 88.5009 46.9323C87.7213 46.9323 87.0433 46.7967 86.4331 46.4916C85.9247 46.1865 85.6535 45.7797 85.6196 45.339C85.6196 44.1865 85.9925 43.6102 86.7382 43.6102C87.1789 43.6102 87.4162 43.7797 87.4501 44.1187C87.4501 44.2543 87.3823 44.3899 87.2467 44.4916C87.1789 44.5594 87.1789 44.5933 87.145 44.6611C87.145 44.7289 87.1111 44.7967 87.0772 44.8984C87.0772 45.2374 87.2806 45.5424 87.6535 45.7797C88.0603 46.0509 88.5687 46.1526 89.2128 46.1526C90.6704 46.1526 92.0602 45.5085 93.4162 44.2543C94.7721 42.9323 95.484 41.6102 95.484 40.2543C95.484 39.034 94.8738 38.017 93.6196 37.1356C92.467 36.3221 90.9755 35.8814 89.1111 35.8814C86.1619 35.8814 82.9416 36.7967 79.4162 38.6272C75.6535 40.5594 73.7552 42.6272 73.7552 44.8306C73.7552 46.4238 74.7382 47.6102 76.7382 48.3899L87.2128 52.356C89.7891 53.3051 91.0772 54.7628 91.0772 56.6611C91.0772 59.6102 89.5857 62.017 86.5687 63.8475C85.0433 64.7289 83.2806 65.4068 81.3484 65.8475C79.3823 66.2882 77.145 66.5255 74.6365 66.5594C70.5348 66.5594 67.0433 65.8475 64.0942 64.4577C61.2128 63.0001 59.7891 61.2712 59.7891 59.2712C59.7891 57.6441 60.8738 56.4916 63.0772 55.7797C64.0264 55.5085 64.5348 55.5424 64.6365 55.8136C64.5687 55.8814 64.467 55.9492 64.3314 56.0509C64.1958 56.1187 64.0603 56.2204 63.8908 56.356C63.7213 56.4916 63.5518 56.6272 63.3145 56.7967C62.467 57.339 62.0264 58.0848 61.9925 59.0001C61.9925 61.1017 63.2128 62.7628 65.6874 63.9492C68.0263 65.1018 71.3145 65.7119 75.5518 65.7797C77.5518 65.7797 79.4162 65.6102 81.0772 65.2374C82.7382 64.8645 84.2636 64.3221 85.6196 63.5424C88.2975 62.0848 89.6535 60.2204 89.6535 57.9831C89.6535 56.2543 88.467 54.9323 86.0941 53.9831L75.7213 49.8475C73.6874 49.0679 72.6365 47.678 72.6026 45.7119C72.6026 43.0001 74.4331 40.5255 78.0602 38.2543C81.7213 35.9831 85.7213 34.8306 90.0603 34.8306C92.3653 34.8306 94.1619 35.2374 95.4162 36.0848C96.6365 36.9662 97.2806 38.0509 97.3484 39.4068Z" fill="#161616"/>
<path d="M108.914 58.7287C108.914 58.7965 108.914 58.8643 108.88 58.9321C108.88 58.9999 108.812 59.0677 108.744 59.1694C107.829 60.322 106.405 61.5084 104.473 62.8304C103.422 63.5762 102.541 64.1525 101.761 64.4914C100.982 64.8643 100.338 65.0338 99.8292 65.0677C99.1173 65.0677 98.4733 64.8304 97.9648 64.322C97.7275 64.627 97.1512 65.0677 96.1682 65.6101C95.0495 66.2203 94.0326 66.4914 93.0495 66.4914C91.6936 66.4914 91.0156 65.9491 91.0156 64.8982C91.0156 64.1864 91.2868 63.4745 91.7953 62.6948C92.3038 61.9491 93.0495 61.1016 94.0326 60.2203C94.9817 59.4067 95.897 58.7965 96.7444 58.3898C97.5919 58.0169 98.3377 57.8135 99.0156 57.8135C100.338 57.8135 100.982 58.4236 100.982 59.6779C100.982 61.0338 100.202 62.3898 98.6427 63.7118C98.9817 64.0508 99.3885 64.2203 99.897 64.2203C100.778 64.2203 102.202 63.5084 104.202 62.0847C105.05 61.4745 105.829 60.8982 106.541 60.2881C107.253 59.6779 107.897 59.1016 108.473 58.4914C108.507 58.4236 108.575 58.3898 108.711 58.4576C108.846 58.5253 108.914 58.5931 108.914 58.7287ZM97.4902 63.6779C96.9817 63.1694 96.7105 62.4914 96.7105 61.644C96.7105 60.5253 96.9478 59.7457 97.4224 59.2711C94.3377 60.6948 92.8122 62.1864 92.8122 63.7457C92.8122 64.6609 93.1851 65.1694 93.9309 65.1694C95.0834 65.2033 96.2699 64.6948 97.4902 63.6779ZM100.473 59.4406C100.473 59.0338 100.236 58.7965 99.7614 58.7287C99.1512 58.7287 98.6427 58.9999 98.2021 59.5084C97.8292 59.983 97.5919 60.5253 97.558 61.1694C97.558 62.1186 97.7275 62.7626 98.0665 63.0677C99.6258 61.8474 100.439 60.627 100.473 59.4406Z" fill="#161616"/>
<path d="M128.666 40.0846C128.666 41.2032 127.311 43.3049 124.633 46.4574C122.056 49.3727 119.277 52.0168 116.26 54.3219C114.802 55.4744 113.446 56.4574 112.124 57.3388C110.802 58.2202 109.548 58.932 108.294 59.5422L106.768 62.2202H113.209C113.717 62.2202 113.988 62.4574 113.988 62.9659C113.988 63.1693 113.717 63.3049 113.209 63.4066L105.683 63.7117C104.429 65.4066 103.412 66.7286 102.633 67.6778C101.887 68.6608 101.344 69.271 101.073 69.5761C100.463 70.288 99.7512 71.1015 98.9376 72.0168C98.1241 72.932 97.141 73.949 95.9885 75.0676C95.2427 75.8134 94.4631 76.5252 93.6834 77.2032C92.9037 77.8812 92.0563 78.5252 91.1749 79.1015C89.7173 80.0846 88.3275 80.8303 87.0732 81.3049C85.819 81.7795 84.5987 82.0507 83.4461 82.0507C82.7342 82.0507 82.1241 81.8473 81.6156 81.4744C81.1071 81.1015 80.8359 80.6947 80.8359 80.1863C80.8359 79.5761 81.1749 79.3049 81.8529 79.3049C81.9546 79.3727 82.0563 79.4744 82.158 79.5761C82.3275 79.7456 82.5986 80.0168 83.0393 80.3557C83.3783 80.6269 83.6834 80.8303 83.9885 80.9659C84.2936 81.0676 84.5986 81.1693 84.9037 81.2032C85.4461 81.2032 86.0902 81.0676 86.8359 80.7625C87.5817 80.4913 88.4631 80.0507 89.5139 79.4405C91.4461 78.288 93.2766 76.8303 95.0054 75.0676C96.0563 73.9829 97.1071 72.8642 98.1241 71.6778C99.141 70.5252 100.124 69.3049 101.107 68.0168C102.836 65.6778 103.751 64.2202 103.819 63.6778H103.378C102.768 63.6778 102.463 63.4066 102.463 62.8642C102.463 62.4913 102.972 62.254 103.921 62.2202H105.107C105.616 61.4066 106.395 60.1863 107.446 58.593C108.497 56.9998 109.819 55.0337 111.446 52.6608C118.158 43.2032 123.277 38.4235 126.768 38.3896C127.243 38.3896 127.683 38.5591 128.056 38.8981C128.497 39.2032 128.666 39.61 128.666 40.0846ZM127.175 40.0846C127.175 39.4744 126.734 39.2032 125.819 39.2032C124.972 39.2032 123.48 40.1185 121.344 41.9829C120.294 42.8981 119.344 43.8812 118.429 44.8981C117.514 45.9151 116.666 46.9659 115.819 48.0507C115.005 49.2032 113.988 50.6608 112.802 52.3558C111.616 54.0507 110.226 56.0507 108.7 58.3218C109.311 57.9151 110.09 57.4066 110.972 56.8303C111.853 56.2541 112.938 55.5761 114.158 54.7964C116.802 53.2032 119.582 50.7964 122.497 47.61C125.616 44.2541 127.175 41.7456 127.175 40.0846Z" fill="#161616"/>
<path d="M130.156 58.7288C130.156 58.8983 130.088 58.9999 129.952 59.1016C128.563 60.322 127.444 61.2711 126.563 61.983C125.715 62.6949 125.105 63.1694 124.698 63.4067C122.427 65.1016 120.698 65.9152 119.512 65.9152C118.8 65.9152 118.088 65.7118 117.444 65.2711C116.834 64.8643 116.529 64.3559 116.461 63.7118C116.461 62.7627 116.969 61.644 117.986 60.322C118.902 59.1355 119.681 58.4576 120.393 58.2881C120.732 58.2881 120.902 58.3898 120.902 58.6271C120.902 58.8305 120.495 59.4067 119.647 60.322C118.936 61.2372 118.529 62.1186 118.495 62.966C118.495 64.0169 118.969 64.5254 119.919 64.5593C121.003 64.5593 124.258 62.5254 129.681 58.4915C129.749 58.4237 129.817 58.4237 129.919 58.4237C130.02 58.4915 130.088 58.5593 130.156 58.7288Z" fill="#161616"/>
<path d="M128.675 51.5088C128.675 52.2206 124.369 56.424 123.319 56.424C122.302 56.424 121.115 55.5427 121.793 55.3393C126.675 53.9155 128.675 50.7291 128.675 51.5088Z" fill="#161616"/>
<path d="M146.088 58.6948C146.088 58.8981 146.021 59.0337 145.919 59.1354C144.597 60.288 143.478 61.2032 142.529 61.949C141.614 62.6948 140.868 63.2371 140.326 63.61C139.004 64.4914 137.817 65.1693 136.766 65.61C135.716 66.0507 134.733 66.288 133.885 66.288C132.495 66.288 131.749 65.2371 131.682 63.1354C131.072 63.6439 130.156 64.2202 129.004 64.7964C127.885 65.4066 126.97 65.6778 126.224 65.6778C125.716 65.6778 125.241 65.5422 124.8 65.3049C124.36 65.1015 124.156 64.7965 124.156 64.3897C124.156 63.2371 125.207 61.8134 127.309 60.1863C128.394 59.3727 129.41 58.7626 130.326 58.3558C131.241 57.949 132.088 57.7456 132.902 57.7456C133.851 57.7456 134.36 57.9829 134.36 58.4575C134.36 58.9659 134.19 59.3388 133.885 59.5761C133.58 59.8134 133.241 59.9151 132.868 59.9151C132.868 59.8812 132.868 59.8473 132.834 59.7456C132.8 59.6778 132.766 59.6439 132.766 59.5761C132.733 59.5083 132.699 59.4405 132.665 59.3388C132.495 58.9659 132.19 58.7626 131.749 58.7287C130.699 58.7287 129.546 59.3049 128.258 60.4236C126.936 61.5083 126.292 62.4914 126.292 63.3727C126.292 63.9151 126.495 64.1863 126.868 64.2202C128.224 64.2202 129.716 63.6778 131.241 62.627C131.58 62.3897 132.156 61.8134 132.97 60.932C133.478 60.288 133.919 59.9829 134.292 60.0507C134.631 60.0507 134.8 60.1863 134.8 60.4236C134.8 60.6609 134.597 61.1693 134.156 61.949C133.749 62.6609 133.546 63.2032 133.546 63.5422C133.546 64.4914 134.021 64.9998 134.97 64.9998C136.122 64.9998 137.987 64.1185 140.563 62.3558C140.902 62.1524 141.478 61.7456 142.36 61.1015C143.207 60.4914 144.36 59.6439 145.783 58.5931C145.851 58.5253 145.919 58.5253 146.021 58.5253C146.055 58.4914 146.088 58.5592 146.088 58.6948Z" fill="#161616"/>
<path d="M39.7489 19.1357V14.2051H41.723C42.0858 14.2051 42.3883 14.2588 42.6307 14.3664C42.8731 14.4739 43.0552 14.6232 43.1772 14.8142C43.2992 15.0036 43.3602 15.2219 43.3602 15.469C43.3602 15.6616 43.3217 15.831 43.2446 15.977C43.1676 16.1215 43.0616 16.2403 42.9268 16.3334C42.7936 16.4248 42.6411 16.4898 42.4694 16.5284V16.5765C42.6572 16.5845 42.8329 16.6375 42.9966 16.7354C43.162 16.8333 43.296 16.9706 43.3987 17.1471C43.5014 17.3221 43.5528 17.5307 43.5528 17.7731C43.5528 18.0347 43.4878 18.2682 43.3578 18.4737C43.2294 18.6775 43.0392 18.8388 42.7872 18.9576C42.5352 19.0764 42.2246 19.1357 41.8555 19.1357H39.7489ZM40.7913 18.2835H41.6412C41.9317 18.2835 42.1436 18.2281 42.2768 18.1173C42.41 18.005 42.4766 17.8557 42.4766 17.6695C42.4766 17.5331 42.4437 17.4127 42.3779 17.3084C42.3121 17.2041 42.2182 17.1222 42.0962 17.0628C41.9758 17.0035 41.8322 16.9738 41.6653 16.9738H40.7913V18.2835ZM40.7913 16.2684H41.5641C41.707 16.2684 41.8338 16.2435 41.9445 16.1937C42.0569 16.1424 42.1452 16.0701 42.2094 15.977C42.2752 15.8839 42.3081 15.7724 42.3081 15.6424C42.3081 15.4642 42.2447 15.3206 42.1179 15.2114C41.9927 15.1023 41.8145 15.0477 41.5834 15.0477H40.7913V16.2684ZM48.7621 16.6704C48.7621 17.2081 48.6602 17.6655 48.4564 18.0427C48.2541 18.4199 47.9781 18.708 47.6282 18.907C47.2799 19.1044 46.8882 19.2032 46.4533 19.2032C46.0151 19.2032 45.6219 19.1036 45.2736 18.9046C44.9253 18.7056 44.65 18.4175 44.4478 18.0403C44.2456 17.6631 44.1444 17.2065 44.1444 16.6704C44.1444 16.1327 44.2456 15.6753 44.4478 15.2981C44.65 14.9209 44.9253 14.6336 45.2736 14.4362C45.6219 14.2372 46.0151 14.1377 46.4533 14.1377C46.8882 14.1377 47.2799 14.2372 47.6282 14.4362C47.9781 14.6336 48.2541 14.9209 48.4564 15.2981C48.6602 15.6753 48.7621 16.1327 48.7621 16.6704ZM47.7052 16.6704C47.7052 16.3221 47.653 16.0284 47.5487 15.7892C47.446 15.5501 47.3007 15.3687 47.1129 15.2451C46.9252 15.1216 46.7053 15.0598 46.4533 15.0598C46.2013 15.0598 45.9814 15.1216 45.7936 15.2451C45.6058 15.3687 45.4598 15.5501 45.3554 15.7892C45.2527 16.0284 45.2014 16.3221 45.2014 16.6704C45.2014 17.0187 45.2527 17.3124 45.3554 17.5516C45.4598 17.7907 45.6058 17.9721 45.7936 18.0957C45.9814 18.2193 46.2013 18.2811 46.4533 18.2811C46.7053 18.2811 46.9252 18.2193 47.1129 18.0957C47.3007 17.9721 47.446 17.7907 47.5487 17.5516C47.653 17.3124 47.7052 17.0187 47.7052 16.6704ZM52.5799 14.2051H53.6224V17.4071C53.6224 17.7666 53.5365 18.0812 53.3648 18.3509C53.1946 18.6205 52.9563 18.8308 52.6497 18.9817C52.3432 19.1309 51.986 19.2056 51.5784 19.2056C51.1691 19.2056 50.8111 19.1309 50.5046 18.9817C50.198 18.8308 49.9597 18.6205 49.7895 18.3509C49.6194 18.0812 49.5343 17.7666 49.5343 17.4071V14.2051H50.5768V17.318C50.5768 17.5058 50.6177 17.6728 50.6996 17.8188C50.7831 17.9649 50.9002 18.0796 51.0511 18.1631C51.202 18.2466 51.3777 18.2883 51.5784 18.2883C51.7806 18.2883 51.9563 18.2466 52.1056 18.1631C52.2565 18.0796 52.3728 17.9649 52.4547 17.8188C52.5382 17.6728 52.5799 17.5058 52.5799 17.318V14.2051ZM54.2923 15.0646V14.2051H58.3418V15.0646H56.8322V19.1357H55.8018V15.0646H54.2923ZM60.0511 14.2051V19.1357H59.0087V14.2051H60.0511ZM62.7698 17.4216H63.6558L64.1012 17.9946L64.5394 18.505L65.3652 19.5402H64.3925L63.8244 18.842L63.533 18.4279L62.7698 17.4216ZM65.4398 16.6704C65.4398 17.2081 65.3379 17.6655 65.1341 18.0427C64.9318 18.4199 64.6558 18.708 64.3059 18.907C63.9576 19.1044 63.5659 19.2032 63.131 19.2032C62.6928 19.2032 62.2996 19.1036 61.9513 18.9046C61.603 18.7056 61.3277 18.4175 61.1255 18.0403C60.9233 17.6631 60.8221 17.2065 60.8221 16.6704C60.8221 16.1327 60.9233 15.6753 61.1255 15.2981C61.3277 14.9209 61.603 14.6336 61.9513 14.4362C62.2996 14.2372 62.6928 14.1377 63.131 14.1377C63.5659 14.1377 63.9576 14.2372 64.3059 14.4362C64.6558 14.6336 64.9318 14.9209 65.1341 15.2981C65.3379 15.6753 65.4398 16.1327 65.4398 16.6704ZM64.3829 16.6704C64.3829 16.3221 64.3307 16.0284 64.2264 15.7892C64.1237 15.5501 63.9784 15.3687 63.7906 15.2451C63.6029 15.1216 63.383 15.0598 63.131 15.0598C62.879 15.0598 62.6591 15.1216 62.4713 15.2451C62.2835 15.3687 62.1375 15.5501 62.0331 15.7892C61.9304 16.0284 61.8791 16.3221 61.8791 16.6704C61.8791 17.0187 61.9304 17.3124 62.0331 17.5516C62.1375 17.7907 62.2835 17.9721 62.4713 18.0957C62.6591 18.2193 62.879 18.2811 63.131 18.2811C63.383 18.2811 63.6029 18.2193 63.7906 18.0957C63.9784 17.9721 64.1237 17.7907 64.2264 17.5516C64.3307 17.3124 64.3829 17.0187 64.3829 16.6704ZM69.2576 14.2051H70.3001V17.4071C70.3001 17.7666 70.2142 18.0812 70.0425 18.3509C69.8723 18.6205 69.634 18.8308 69.3274 18.9817C69.0209 19.1309 68.6637 19.2056 68.2561 19.2056C67.8468 19.2056 67.4888 19.1309 67.1823 18.9817C66.8757 18.8308 66.6374 18.6205 66.4672 18.3509C66.2971 18.0812 66.212 17.7666 66.212 17.4071V14.2051H67.2545V17.318C67.2545 17.5058 67.2954 17.6728 67.3773 17.8188C67.4608 17.9649 67.5779 18.0796 67.7288 18.1631C67.8797 18.2466 68.0554 18.2883 68.2561 18.2883C68.4583 18.2883 68.634 18.2466 68.7833 18.1631C68.9342 18.0796 69.0505 17.9649 69.1324 17.8188C69.2159 17.6728 69.2576 17.5058 69.2576 17.318V14.2051ZM71.1578 19.1357V14.2051H74.4802V15.0646H72.2002V16.2395H74.3092V17.099H72.2002V18.2762H74.4898V19.1357H71.1578ZM77.728 19.1357H76.6109L78.313 14.2051H79.6564L81.3561 19.1357H80.239L79.004 15.3318H78.9654L77.728 19.1357ZM77.6581 17.1977H80.2968V18.0114H77.6581V17.1977ZM81.9496 19.1357V14.2051H83.8949C84.2689 14.2051 84.5875 14.2765 84.8507 14.4194C85.1139 14.5606 85.3145 14.7572 85.4526 15.0092C85.5922 15.2596 85.662 15.5485 85.662 15.8759C85.662 16.2033 85.5914 16.4923 85.4502 16.7426C85.3089 16.993 85.1043 17.188 84.8362 17.3277C84.5698 17.4673 84.2472 17.5371 83.8684 17.5371H82.6285V16.7017H83.6999C83.9005 16.7017 84.0658 16.6672 84.1958 16.5982C84.3275 16.5276 84.4254 16.4305 84.4896 16.3069C84.5554 16.1817 84.5883 16.038 84.5883 15.8759C84.5883 15.7122 84.5554 15.5694 84.4896 15.4474C84.4254 15.3238 84.3275 15.2283 84.1958 15.1609C84.0642 15.0919 83.8973 15.0574 83.6951 15.0574H82.9921V19.1357H81.9496ZM86.6196 19.1357H85.5025L87.2047 14.2051H88.5481L90.2478 19.1357H89.1307L87.8956 15.3318H87.8571L86.6196 19.1357ZM86.5498 17.1977H89.1885V18.0114H86.5498V17.1977ZM90.8413 19.1357V14.2051H92.7866C93.1589 14.2051 93.4767 14.2717 93.74 14.4049C94.0048 14.5365 94.2062 14.7235 94.3443 14.9659C94.4839 15.2066 94.5537 15.4899 94.5537 15.8157C94.5537 16.1432 94.4831 16.4248 94.3419 16.6608C94.2006 16.8951 93.996 17.0749 93.7279 17.2001C93.4615 17.3253 93.1389 17.3879 92.7601 17.3879H91.4576V16.55H92.5916C92.7906 16.55 92.9559 16.5227 93.0875 16.4682C93.2191 16.4136 93.317 16.3317 93.3812 16.2226C93.4471 16.1135 93.48 15.9778 93.48 15.8157C93.48 15.652 93.4471 15.514 93.3812 15.4016C93.317 15.2893 93.2183 15.2042 93.0851 15.1464C92.9535 15.087 92.7874 15.0574 92.5868 15.0574H91.8837V19.1357H90.8413ZM93.504 16.8919L94.7295 19.1357H93.5787L92.3797 16.8919H93.504ZM95.1026 15.0646V14.2051H99.1521V15.0646H97.6426V19.1357H96.6122V15.0646H95.1026ZM99.819 14.2051H101.105L102.463 17.5179H102.52L103.878 14.2051H105.164V19.1357H104.153V15.9265H104.112L102.836 19.1117H102.147L100.871 15.9144H100.83V19.1357H99.819V14.2051ZM106.023 19.1357V14.2051H109.345V15.0646H107.065V16.2395H109.174V17.099H107.065V18.2762H109.355V19.1357H106.023ZM114.298 14.2051V19.1357H113.398L111.252 16.0324H111.216V19.1357H110.174V14.2051H111.089L113.217 17.306H113.26V14.2051H114.298ZM114.972 15.0646V14.2051H119.021V15.0646H117.512V19.1357H116.481V15.0646H114.972ZM122.363 15.6231C122.343 15.4289 122.261 15.278 122.115 15.1705C121.969 15.063 121.77 15.0092 121.52 15.0092C121.35 15.0092 121.206 15.0333 121.089 15.0814C120.972 15.128 120.882 15.193 120.819 15.2764C120.759 15.3599 120.728 15.4546 120.728 15.5605C120.725 15.6488 120.743 15.7258 120.783 15.7917C120.825 15.8575 120.882 15.9144 120.954 15.9626C121.027 16.0091 121.11 16.0501 121.205 16.0854C121.299 16.1191 121.401 16.148 121.508 16.172L121.951 16.278C122.166 16.3261 122.364 16.3903 122.543 16.4706C122.723 16.5508 122.879 16.6495 123.01 16.7667C123.142 16.8839 123.244 17.0219 123.316 17.1808C123.39 17.3397 123.428 17.5219 123.429 17.7273C123.428 18.0291 123.351 18.2907 123.198 18.5122C123.047 18.7321 122.829 18.903 122.543 19.025C122.259 19.1454 121.917 19.2056 121.515 19.2056C121.117 19.2056 120.771 19.1446 120.475 19.0226C120.181 18.9006 119.952 18.72 119.787 18.4809C119.623 18.2401 119.537 17.9424 119.529 17.5877H120.538C120.549 17.753 120.596 17.891 120.68 18.0018C120.765 18.1109 120.878 18.1936 121.019 18.2498C121.162 18.3043 121.323 18.3316 121.503 18.3316C121.68 18.3316 121.833 18.3059 121.963 18.2546C122.095 18.2032 122.197 18.1318 122.269 18.0403C122.341 17.9488 122.377 17.8437 122.377 17.7249C122.377 17.6142 122.344 17.5211 122.278 17.4456C122.214 17.3702 122.12 17.306 121.994 17.253C121.871 17.2001 121.719 17.1519 121.539 17.1086L121.002 16.9738C120.587 16.8726 120.259 16.7145 120.018 16.4995C119.777 16.2844 119.657 15.9947 119.659 15.6303C119.657 15.3318 119.737 15.071 119.897 14.8479C120.06 14.6248 120.282 14.4506 120.564 14.3255C120.847 14.2003 121.168 14.1377 121.527 14.1377C121.893 14.1377 122.213 14.2003 122.486 14.3255C122.76 14.4506 122.973 14.6248 123.126 14.8479C123.278 15.071 123.357 15.3294 123.362 15.6231H122.363Z" fill="black"/>
<defs>
<radialGradient id="paint0_radial_232_235" cx="0" cy="0" r="1" gradientUnits="userSpaceOnUse" gradientTransform="translate(33.1074 51.6779) scale(32.8238 32.8238)">
<stop stop-color="#1A55A5"/>
<stop offset="0.3939" stop-color="#1955A2"/>
<stop offset="0.6454" stop-color="#15579A"/>
<stop offset="0.8565" stop-color="#0F598B"/>
<stop offset="1" stop-color="#085B7C"/>
</radialGradient>
<radialGradient id="paint1_radial_232_235" cx="0" cy="0" r="1" gradientUnits="userSpaceOnUse" gradientTransform="translate(33.1074 51.6779) scale(32.8238 32.8238)">
<stop stop-color="#1A55A5"/>
<stop offset="0.3939" stop-color="#1955A2"/>
<stop offset="0.6454" stop-color="#15579A"/>
<stop offset="0.8565" stop-color="#0F598B"/>
<stop offset="1" stop-color="#085B7C"/>
</radialGradient>
</defs>
</svg>
